<svg xmlns="http://www.w3.org/2000/svg" width="24" height="25" viewBox="0 0 24 25" fill="none">
                  <g clip-path="url(#clip0_5212_1076)">
                    <path d="M21.0177 0.864746H3.11972C1.4746 0.864746 0.136719 2.20262 0.136719 3.84775V21.7458C0.136719 23.3909 1.4746 24.7288 3.11972 24.7288H12.0687V16.5255H9.08573V12.7968H12.0687V9.81375C12.0687 7.34234 14.0718 5.33925 16.5432 5.33925H19.5262V9.068H18.0347C17.2114 9.068 16.5432 8.99045 16.5432 9.81375V12.7968H20.272L18.7805 16.5255H16.5432V24.7288H21.0177C22.6629 24.7288 24.0007 23.3909 24.0007 21.7458V3.84775C24.0007 2.20262 22.6629 0.864746 21.0177 0.864746Z" fill="#8D8D8D"></path>
                  </g>
                  <defs>
                    <clipPath id="clip0_5212_1076">
                      <rect width="23.864" height="23.864" fill="white" transform="translate(0.136719 0.864746)"></rect>
                    </clipPath>
                  </defs>
                </svg>