<svg width="20" height="20" viewBox="0 0 20 20" fill="none" xmlns="http://www.w3.org/2000/svg">
<g clip-path="url(#clip0_142_12522)">
<path d="M3.27539 9.73857L10.0001 12.9699L11.7905 12.0966L16.7248 9.73857V2.62109H3.27539V9.73857ZM12.6201 10.1316H7.38009C7.11809 10.1316 6.89975 9.91324 6.89975 9.65124C6.89975 9.38924 7.11809 9.1709 7.38009 9.1709H12.6201C12.8821 9.1709 13.1005 9.38924 13.1005 9.65124C13.1005 9.91324 12.8821 10.1316 12.6201 10.1316ZM13.4498 8.42856H6.55042C6.28842 8.42856 6.07008 8.21023 6.07008 7.94822C6.07008 7.68622 6.28842 7.46789 6.55042 7.46789H13.4498C13.7118 7.46789 13.9301 7.68622 13.9301 7.94822C13.9301 8.21023 13.7118 8.42856 13.4498 8.42856ZM13.5808 4.41119L14.0175 3.84352L14.4542 4.41119L15.1528 4.62953L14.7162 5.24087V5.98321L14.0175 5.76487L13.3188 5.98321V5.24087L12.8821 4.62953L13.5808 4.41119ZM9.56344 4.41119L10.0001 3.84352L10.4368 4.41119L11.1355 4.62953L10.6988 5.24087V5.98321L10.0001 5.7212L9.30144 5.93954V5.1972L8.86477 4.58586L9.56344 4.41119ZM5.58974 4.41119L6.02641 3.84352L6.46308 4.41119L7.16176 4.62953L6.72509 5.24087V5.98321L6.02641 5.76487L5.32774 5.98321V5.24087L4.89107 4.62953L5.58974 4.41119Z" fill="#D5D8E3"/>
<path d="M8.0791 1.65935H11.9218L10.0005 0L8.0791 1.65935Z" fill="#ABB2C7"/>
<path d="M11.921 13.0566L10.218 13.8863C10.1743 13.93 10.087 13.93 9.99963 13.93C9.91229 13.93 9.86863 13.93 9.78129 13.8863L8.07828 13.0566L0.786133 19.5194H19.257L11.921 13.0566Z" fill="#ABB2C7"/>
<path d="M20.0003 9.16992L12.8389 12.6196L20.0003 18.9516V9.16992Z" fill="#ABB2C7"/>
<path d="M0 18.9516L7.16139 12.6196L0 9.16992V18.9516Z" fill="#ABB2C7"/>
<path d="M17.6855 9.25674L19.6506 8.33973L17.6855 6.63672V9.25674Z" fill="#ABB2C7"/>
<path d="M0.349609 8.33973L2.31463 9.25674V6.63672L0.349609 8.33973Z" fill="#ABB2C7"/>
</g>
<defs>
<clipPath id="clip0_142_12522">
<rect width="20" height="20" fill="white"/>
</clipPath>
</defs>
</svg>
