<svg width="28" height="25" viewBox="0 0 28 25" fill="none" xmlns="http://www.w3.org/2000/svg">
<path d="M1 9.5L6.5 1H21.5L27 9.5L14.5 23.5L12.5 23L1 9.5Z" fill="#C8E7FF"/>
<path d="M27.6631 8.42656L22.6625 0.872464C22.3009 0.326611 21.7022 0 21.0598 0H6.9396C6.29794 0 5.69857 0.32586 5.3369 0.871713L0.33558 8.42656C-0.171917 9.19616 -0.0968131 10.2248 0.513495 10.9058L12.5731 24.3562C13.3402 25.2159 14.6592 25.2129 15.4234 24.3577L27.4845 10.9066C28.0736 10.2511 28.191 9.22544 27.6631 8.42656ZM7.61626 10.5034L11.8899 21.1021L2.38671 10.5034H7.61626ZM15.1828 1.68937L18.5282 8.81399H9.47198L12.8174 1.68937H15.1828ZM18.6069 10.5034L14.0001 21.9295L9.39323 10.5034H18.6069ZM20.3832 10.5034H25.6134L16.1095 21.1028L20.3832 10.5034ZM21.307 1.82377L25.935 8.81474H20.3503L17.005 1.69012H21.0598C21.159 1.68937 21.2509 1.73967 21.307 1.82377ZM6.69314 1.82301C6.74856 1.73892 6.84116 1.68862 6.9396 1.68862H10.9945L7.64907 8.81324H2.06515L6.69314 1.82301Z" fill="url(#paint0_linear_5131_126)"/>
<defs>
<linearGradient id="paint0_linear_5131_126" x1="14" y1="0" x2="14" y2="25" gradientUnits="userSpaceOnUse">
<stop stop-color="#05BAFF"/>
<stop offset="1" stop-color="#515DFF"/>
</linearGradient>
</defs>
</svg>
