<svg width="20" height="20" viewBox="0 0 20 20" fill="none" xmlns="http://www.w3.org/2000/svg">
<path d="M17.0312 2.34375H13.5475L13.1666 1.20164C12.9268 0.48293 12.2568 0 11.4992 0H8.50082C7.7432 0 7.07316 0.48293 6.83285 1.20164L6.45242 2.34375H2.96875C1.99945 2.34375 1.21094 3.13227 1.21094 4.10156V5.27344C1.21094 5.92609 1.79848 5.85938 2.42902 5.85938C7.84129 5.85938 12.7484 5.85938 18.2031 5.85938C18.527 5.85938 18.7891 5.5973 18.7891 5.27344V4.10156C18.7891 3.13227 18.0005 2.34375 17.0312 2.34375ZM7.68801 2.34375L7.94465 1.57242C8.02477 1.33266 8.24848 1.17188 8.50082 1.17188H11.4992C11.7515 1.17188 11.9753 1.33266 12.0548 1.57242L12.3117 2.34375H7.68801Z" fill="#D5D8E3"/>
<path d="M2.52637 7.10938L3.46062 18.4012C3.54359 19.3128 4.29605 20 5.21102 20H14.7897C15.7047 20 16.4571 19.3128 16.5407 18.3961L17.4744 7.10938H2.52637ZM7.07066 17.0703C7.07066 17.8427 5.89879 17.8459 5.89879 17.0703V8.86719C5.89879 8.0948 7.07066 8.09164 7.07066 8.86719V17.0703ZM10.5863 17.0703C10.5863 17.8427 9.41441 17.8459 9.41441 17.0703V8.86719C9.41441 8.0948 10.5863 8.09164 10.5863 8.86719V17.0703ZM14.1019 17.0703C14.1019 17.8427 12.93 17.8459 12.93 17.0703V8.86719C12.93 8.54332 13.1921 8.28125 13.516 8.28125C13.8398 8.28125 14.1019 8.54332 14.1019 8.86719V17.0703Z" fill="#ABB2C7"/>
</svg>
