<svg width="17" height="17" viewBox="0 0 17 17" fill="none" xmlns="http://www.w3.org/2000/svg">
<path d="M6.44934 15.459H4.01621C3.43871 15.4584 2.88502 15.2288 2.47667 14.8204C2.06831 14.412 1.83865 13.8584 1.83809 13.2809V3.71836C1.83809 2.5172 2.81505 1.54023 4.01621 1.54023H10.8268C12.028 1.54023 13.005 2.5172 13.005 3.71836V6.4543C13.005 6.5811 13.0553 6.70272 13.145 6.79238C13.2347 6.88205 13.3563 6.93242 13.4831 6.93242C13.6099 6.93242 13.7315 6.88205 13.8212 6.79238C13.9108 6.70272 13.9612 6.5811 13.9612 6.4543V3.71836C13.9612 1.9902 12.555 0.583984 10.8268 0.583984H4.01621C3.18518 0.584828 2.38843 0.915327 1.80081 1.50295C1.21318 2.09058 0.88268 2.88733 0.881836 3.71836V13.2809C0.881836 15.009 2.28805 16.4152 4.01621 16.4152H6.44934C6.57614 16.4152 6.69775 16.3649 6.78742 16.2752C6.87709 16.1855 6.92746 16.0639 6.92746 15.9371C6.92746 15.8103 6.87709 15.6887 6.78742 15.599C6.69775 15.5094 6.57614 15.459 6.44934 15.459Z" fill="#F33E3E" stroke="#F33E3E" stroke-width="0.3"/>
<path d="M11.4179 4.78086C11.4179 4.65405 11.3675 4.53244 11.2779 4.44277C11.1882 4.35311 11.0666 4.30273 10.9398 4.30273H3.90391C3.7771 4.30273 3.65549 4.35311 3.56582 4.44277C3.47616 4.53244 3.42578 4.65405 3.42578 4.78086C3.42578 4.90767 3.47616 5.02928 3.56582 5.11894C3.65549 5.20861 3.7771 5.25898 3.90391 5.25898H10.9398C11.0666 5.25898 11.1882 5.20861 11.2779 5.11894C11.3675 5.02928 11.4179 4.90767 11.4179 4.78086ZM3.90391 8.02148C3.7771 8.02148 3.65549 8.07186 3.56582 8.16152C3.47616 8.25119 3.42578 8.3728 3.42578 8.49961C3.42578 8.62642 3.47616 8.74803 3.56582 8.83769C3.65549 8.92736 3.7771 8.97773 3.90391 8.97773H9.34603C9.47284 8.97773 9.59445 8.92736 9.68412 8.83769C9.77378 8.74803 9.82416 8.62642 9.82416 8.49961C9.82416 8.3728 9.77378 8.25119 9.68412 8.16152C9.59445 8.07186 9.47284 8.02148 9.34603 8.02148H3.90391ZM6.481 11.7402H3.90444C3.77763 11.7402 3.65602 11.7906 3.56635 11.8803C3.47669 11.9699 3.42631 12.0916 3.42631 12.2184C3.42631 12.3452 3.47669 12.4668 3.56635 12.5564C3.65602 12.6461 3.77763 12.6965 3.90444 12.6965H6.481C6.60781 12.6965 6.72942 12.6461 6.81909 12.5564C6.90875 12.4668 6.95913 12.3452 6.95913 12.2184C6.95913 12.0916 6.90875 11.9699 6.81909 11.8803C6.72942 11.7906 6.60781 11.7402 6.481 11.7402ZM16.2039 8.81995L15.0331 7.65014C14.6739 7.28995 14.0465 7.29048 13.6874 7.65014L7.78681 13.5497C7.61051 13.7253 7.51034 13.9633 7.50791 14.2121L7.49463 15.3958C7.49197 15.654 7.59078 15.8967 7.77353 16.08C7.95363 16.2601 8.19162 16.3584 8.44556 16.3584H8.45672L9.64088 16.3451C9.89056 16.3425 10.1254 16.2436 10.3033 16.0667L16.2039 10.1661C16.3818 9.98727 16.4816 9.74528 16.4816 9.49305C16.4816 9.24081 16.3818 8.99882 16.2039 8.81995ZM9.62813 15.3889L8.45087 15.4069L8.46256 14.226L14.3563 8.32589L15.5271 9.48986L9.62813 15.3889Z" fill="#F33E3E" stroke="#F33E3E" stroke-width="0.3"/>
</svg>
