<svg width="20" height="20" viewBox="0 0 20 20" fill="none" xmlns="http://www.w3.org/2000/svg">
<path d="M18.108 10.9336C17.3757 10.7457 16.666 10.4788 15.9913 10.1377C15.783 10.0336 15.5913 9.93356 15.4163 9.83772C15.0705 9.64606 14.7955 9.47522 14.6163 9.35856C14.6061 9.35137 14.5949 9.34575 14.583 9.34189C14.4509 9.2649 14.3002 9.22573 14.1473 9.22867C13.9945 9.23161 13.8454 9.27654 13.7163 9.35856C12.6413 10.0616 11.4633 10.593 10.2247 10.9336C10.0423 10.9779 9.88008 11.0819 9.76379 11.2292C9.64749 11.3765 9.58385 11.5584 9.58301 11.7461V12.4586C9.58257 13.4875 9.83643 14.5007 10.322 15.4079C10.8076 16.3151 11.5099 17.0882 12.3663 17.6586L12.7538 17.9169L13.7038 18.5502C13.7792 18.5998 13.8622 18.6364 13.9497 18.6586H13.9538C14.0222 18.6821 14.0941 18.6934 14.1663 18.6919C14.331 18.6905 14.4917 18.6413 14.6288 18.5502L15.9663 17.6586C16.8228 17.0882 17.5251 16.3151 18.0107 15.4079C18.4963 14.5007 18.7501 13.4875 18.7497 12.4586V11.7461C18.7488 11.5584 18.6852 11.3765 18.5689 11.2292C18.4526 11.0819 18.2903 10.9779 18.108 10.9336ZM15.7122 13.2127L14.0455 14.8794C13.9665 14.9569 13.8603 15.0002 13.7497 15.0002C13.639 15.0002 13.5328 14.9569 13.4538 14.8794L12.6205 14.0461C12.542 13.9676 12.498 13.8612 12.498 13.7502C12.498 13.6393 12.542 13.5329 12.6205 13.4544C12.699 13.3759 12.8054 13.3319 12.9163 13.3319C13.0273 13.3319 13.1337 13.3759 13.2122 13.4544L13.7497 13.9961L15.1205 12.6211C15.1594 12.5822 15.2055 12.5514 15.2562 12.5304C15.307 12.5093 15.3614 12.4985 15.4163 12.4985C15.4713 12.4985 15.5257 12.5093 15.5764 12.5304C15.6272 12.5514 15.6733 12.5822 15.7122 12.6211C15.751 12.6599 15.7818 12.706 15.8029 12.7568C15.8239 12.8075 15.8347 12.8619 15.8347 12.9169C15.8347 12.9718 15.8239 13.0262 15.8029 13.077C15.7818 13.1278 15.751 13.1739 15.7122 13.2127Z" fill="#D5D8E3"/>
<path d="M14.825 5.51672L11.2625 1.87505C11.1346 1.74566 10.9903 1.63359 10.8333 1.54172V4.58339C10.8343 4.9146 10.9663 5.23197 11.2005 5.46618C11.4347 5.70039 11.7521 5.8324 12.0833 5.83339H15.0792C15.004 5.72051 14.9189 5.61453 14.825 5.51672ZM15.3917 6.66672H12.0833C11.5308 6.66672 11.0009 6.44723 10.6102 6.05653C10.2195 5.66583 10 5.13592 10 4.58339V1.26672C9.92559 1.25496 9.85033 1.24938 9.775 1.25005H3.33333C2.7808 1.25005 2.2509 1.46955 1.86019 1.86025C1.46949 2.25095 1.25 2.78085 1.25 3.33339V16.6667C1.25 17.2193 1.46949 17.7492 1.86019 18.1399C2.2509 18.5306 2.7808 18.7501 3.33333 18.7501H12.5042L11.9042 18.3501C10.9333 17.7043 10.1373 16.8284 9.58697 15.8004C9.03664 14.7725 8.74912 13.6244 8.75 12.4584V11.7459C8.75016 11.4882 8.81007 11.2341 8.92502 11.0034C9.03997 10.7728 9.20684 10.572 9.4125 10.4167H4.16667C4.05616 10.4167 3.95018 10.3728 3.87204 10.2947C3.7939 10.2165 3.75 10.1106 3.75 10.0001C3.75 9.88955 3.7939 9.78357 3.87204 9.70543C3.95018 9.62729 4.05616 9.58339 4.16667 9.58339H11.5583C12.1483 9.31733 12.7179 9.00816 13.2625 8.65839C13.5068 8.50318 13.787 8.41359 14.076 8.39826C14.3651 8.38293 14.6532 8.44239 14.9125 8.57089L14.9417 8.58339L15.0667 8.65839C15.1542 8.71672 15.2708 8.78755 15.4167 8.87505V6.97505C15.4168 6.87177 15.4084 6.76864 15.3917 6.66672ZM8.75 15.0001C8.75 15.1106 8.7061 15.2165 8.62796 15.2947C8.54982 15.3728 8.44384 15.4167 8.33333 15.4167H4.16667C4.05616 15.4167 3.95018 15.3728 3.87204 15.2947C3.7939 15.2165 3.75 15.1106 3.75 15.0001C3.75 14.8895 3.7939 14.7836 3.87204 14.7054C3.95018 14.6273 4.05616 14.5834 4.16667 14.5834H8.33333C8.44384 14.5834 8.54982 14.6273 8.62796 14.7054C8.7061 14.7836 8.75 14.8895 8.75 15.0001ZM4.16667 12.0834H7.5C7.61051 12.0834 7.71649 12.1273 7.79463 12.2054C7.87277 12.2836 7.91667 12.3895 7.91667 12.5001C7.91667 12.6106 7.87277 12.7165 7.79463 12.7947C7.71649 12.8728 7.61051 12.9167 7.5 12.9167H4.16667C4.05616 12.9167 3.95018 12.8728 3.87204 12.7947C3.7939 12.7165 3.75 12.6106 3.75 12.5001C3.75 12.3895 3.7939 12.2836 3.87204 12.2054C3.95018 12.1273 4.05616 12.0834 4.16667 12.0834ZM4.16667 4.58339H7.5C7.61051 4.58339 7.71649 4.62729 7.79463 4.70543C7.87277 4.78357 7.91667 4.88955 7.91667 5.00005C7.91667 5.11056 7.87277 5.21654 7.79463 5.29468C7.71649 5.37282 7.61051 5.41672 7.5 5.41672H4.16667C4.05616 5.41672 3.95018 5.37282 3.87204 5.29468C3.7939 5.21654 3.75 5.11056 3.75 5.00005C3.75 4.88955 3.7939 4.78357 3.87204 4.70543C3.95018 4.62729 4.05616 4.58339 4.16667 4.58339ZM10 7.91672H4.16667C4.05616 7.91672 3.95018 7.87282 3.87204 7.79468C3.7939 7.71654 3.75 7.61056 3.75 7.50005C3.75 7.38955 3.7939 7.28357 3.87204 7.20543C3.95018 7.12729 4.05616 7.08339 4.16667 7.08339H10C10.1105 7.08339 10.2165 7.12729 10.2946 7.20543C10.3728 7.28357 10.4167 7.38955 10.4167 7.50005C10.4167 7.61056 10.3728 7.71654 10.2946 7.79468C10.2165 7.87282 10.1105 7.91672 10 7.91672Z" fill="#ABB2C7"/>
</svg>
