<svg width="30" height="30" viewBox="0 0 30 30" fill="none" xmlns="http://www.w3.org/2000/svg">
<path d="M5.67723 5.66552L6.63958 4.83162C7.74856 3.72279 9.54494 3.72279 10.6539 4.83162C10.6814 4.85911 12.377 7.06758 12.377 7.06758C13.4218 8.16724 13.4218 9.8992 12.377 10.9897L11.3138 12.3276C12.6519 15.3608 14.7324 17.4502 17.6653 18.6964L19.0034 17.6243C20.0941 16.5704 21.8355 16.5704 22.9261 17.6243C22.9261 17.6243 25.1349 19.3196 25.1624 19.3471C26.2714 20.4559 26.2714 22.252 25.2083 23.315L24.2917 24.3688C23.2377 25.4227 21.8171 26 20.2774 26C13.2752 26 4 16.7171 4 9.72509C4 8.19473 4.57741 6.76518 5.67723 5.67469V5.66552ZM20.2774 24.1581C21.3222 24.1581 22.2846 23.7732 22.9445 23.1042L23.861 22.0504C24.2368 21.6747 24.2551 21.0607 23.8976 20.6667C23.8976 20.6667 21.7072 18.9805 21.6797 18.953C21.3039 18.5773 20.644 18.5773 20.2591 18.953C20.2316 18.9805 18.3894 20.4559 18.3894 20.4559C18.1327 20.6575 17.7936 20.7125 17.4912 20.5934C13.6968 19.1455 10.9747 16.433 9.40747 12.52C9.28832 12.2176 9.33414 11.8694 9.54494 11.6037C9.54494 11.6037 11.0205 9.75258 11.0389 9.73425C11.433 9.34021 11.433 8.7079 11.0389 8.31386C11.0114 8.28637 9.32498 6.09622 9.32498 6.09622C8.93087 5.73883 8.31681 5.748 7.89521 6.16953L6.93286 7.00344C6.22714 7.70905 5.83304 8.67125 5.83304 9.71592C5.83304 16.0939 14.7874 24.1581 20.2774 24.1581Z" fill="#003677"/>
</svg>
