<svg width="202" height="54" viewBox="0 0 202 54" fill="none" xmlns="http://www.w3.org/2000/svg">
<path d="M34.7479 1.05003C35.7869 1.34988 36.7886 1.70503 37.7898 2.11729C41.0208 3.46683 43.9691 5.43524 46.4443 7.90938C48.9383 10.3647 50.9031 13.2889 52.2825 16.4939C53.4728 19.2867 54.1727 22.2491 54.3617 25.2668H54.4184V54H43.0054V48.9776C41.3805 50.1209 39.6415 51.0957 37.7898 51.8642C36.7885 52.2765 35.768 52.6316 34.729 52.9315L32.0273 41.9111C38.5649 39.8305 43.0054 33.7947 42.9865 26.9908C42.9865 20.3181 38.7161 14.3765 32.3675 12.1835L34.7479 1.05003Z" fill="#5961F8"/>
<path d="M27.2085 0.000350629C29.1546 0.000350629 31.0817 0.206971 32.99 0.600528L30.6474 11.6963C22.126 9.82205 13.6995 15.145 11.791 23.5981C9.88257 32.0515 15.267 40.4122 23.7886 42.3053C25.9236 42.7739 28.1154 42.8105 30.2694 42.3794L32.7644 53.4387C30.9316 53.7949 29.0792 53.9824 27.2085 53.9824C12.1871 53.9823 0 41.8731 0 26.9719C0.000172764 16.1384 6.53773 6.33591 16.6084 2.11855C19.9528 0.712794 23.5619 -0.0183691 27.2085 0.000350629Z" fill="#5961F8"/>
<path d="M79.6527 21.8312H75.7403C75.5898 20.9982 75.3097 20.2652 74.9001 19.6321C74.4905 18.999 73.9889 18.4617 73.3953 18.0202C72.8018 17.5787 72.1371 17.2455 71.4015 17.0206C70.6741 16.7957 69.9008 16.6833 69.0816 16.6833C67.6019 16.6833 66.2768 17.054 65.1064 17.7953C63.9444 18.5367 63.0248 19.6237 62.3476 21.0565C61.6788 22.4893 61.3444 24.2386 61.3444 26.3044C61.3444 28.3869 61.6788 30.1445 62.3476 31.5773C63.0248 33.01 63.9485 34.0929 65.1189 34.826C66.2893 35.559 67.606 35.9255 69.069 35.9255C69.8799 35.9255 70.6491 35.8172 71.3764 35.6006C72.1121 35.3757 72.7767 35.0467 73.3702 34.6135C73.9638 34.1804 74.4654 33.6514 74.875 33.0267C75.293 32.3936 75.5814 31.6689 75.7403 30.8526L79.6527 30.865C79.4437 32.1229 79.0383 33.2807 78.4364 34.3386C77.8428 35.3882 77.0779 36.2962 76.1415 37.0625C75.2136 37.8206 74.1519 38.4078 72.9564 38.8243C71.7609 39.2408 70.4568 39.4491 69.0439 39.4491C66.8202 39.4491 64.8389 38.9243 63.1 37.8747C61.3611 36.8168 59.9901 35.3049 58.9869 33.339C57.9921 31.3732 57.4947 29.0283 57.4947 26.3044C57.4947 23.5722 57.9963 21.2273 58.9995 19.2697C60.0026 17.3038 61.3737 15.7961 63.1126 14.7465C64.8514 13.6886 66.8286 13.1597 69.0439 13.1597C70.4066 13.1597 71.6773 13.3554 72.8561 13.747C74.0432 14.1301 75.1091 14.6966 76.0538 15.4463C76.9985 16.1876 77.7801 17.0956 78.3987 18.1702C79.0174 19.2364 79.4354 20.4567 79.6527 21.8312Z" fill="#5961F8"/>
<path d="M83.9884 39.0992V19.907H87.6125V22.9557H87.8131C88.1642 21.9228 88.7829 21.1106 89.669 20.5192C90.5635 19.9195 91.5751 19.6196 92.7037 19.6196C92.9378 19.6196 93.2136 19.6279 93.5313 19.6446C93.8574 19.6612 94.1123 19.6821 94.2963 19.707V23.2806C94.1458 23.239 93.8783 23.1931 93.4937 23.1432C93.1091 23.0849 92.7246 23.0557 92.34 23.0557C91.4539 23.0557 90.6639 23.2431 89.97 23.618C89.2845 23.9845 88.7411 24.4968 88.3398 25.1548C87.9385 25.8046 87.7379 26.546 87.7379 27.379V39.0992H83.9884Z" fill="#5961F8"/>
<path d="M102.974 39.5241C101.753 39.5241 100.65 39.2991 99.6634 38.8493C98.6769 38.3912 97.8952 37.7289 97.3184 36.8626C96.7499 35.9963 96.4657 34.9342 96.4657 33.6764C96.4657 32.5935 96.6747 31.7022 97.0927 31.0025C97.5107 30.3028 98.075 29.7488 98.7856 29.3407C99.4962 28.9325 100.29 28.6243 101.168 28.416C102.046 28.2078 102.94 28.0495 103.852 27.9412C105.005 27.8079 105.942 27.6997 106.661 27.6164C107.38 27.5247 107.902 27.379 108.228 27.179C108.554 26.9791 108.717 26.6542 108.717 26.2044V26.117C108.717 25.0257 108.408 24.1802 107.789 23.5805C107.179 22.9807 106.268 22.6808 105.056 22.6808C103.793 22.6808 102.798 22.9599 102.071 23.518C101.352 24.0678 100.855 24.68 100.579 25.3548L97.055 24.5551C97.473 23.3889 98.0833 22.4476 98.8859 21.7312C99.6968 21.0065 100.629 20.4817 101.682 20.1569C102.736 19.8237 103.843 19.6571 105.005 19.6571C105.774 19.6571 106.59 19.7487 107.451 19.932C108.32 20.1069 109.131 20.4318 109.883 20.9066C110.644 21.3814 111.267 22.0603 111.752 22.9432C112.237 23.8179 112.479 24.9549 112.479 26.3544V39.0992H108.818V36.4753H108.667C108.425 36.9584 108.061 37.4332 107.576 37.8997C107.091 38.3662 106.468 38.7535 105.708 39.0617C104.947 39.3699 104.036 39.5241 102.974 39.5241ZM103.789 36.5253C104.826 36.5253 105.712 36.3212 106.447 35.913C107.191 35.5048 107.756 34.9717 108.14 34.3137C108.533 33.6473 108.73 32.935 108.73 32.177V29.703C108.596 29.8363 108.337 29.9612 107.952 30.0779C107.576 30.1862 107.146 30.2819 106.661 30.3652C106.176 30.4402 105.703 30.511 105.244 30.5777C104.784 30.636 104.399 30.686 104.09 30.7276C103.363 30.8192 102.698 30.9733 102.096 31.1899C101.503 31.4065 101.026 31.7189 100.667 32.127C100.315 32.5269 100.14 33.06 100.14 33.7264C100.14 34.651 100.483 35.3507 101.168 35.8255C101.854 36.292 102.727 36.5253 103.789 36.5253Z" fill="#5961F8"/>
<path d="M126.64 19.907V22.9058H115.755V19.907H126.64ZM118.74 39.0992V17.6829C118.74 16.4833 119.003 15.4879 119.53 14.6966C120.056 13.8969 120.754 13.3013 121.624 12.9098C122.493 12.5099 123.438 12.31 124.458 12.31C125.21 12.31 125.854 12.3725 126.389 12.4975C126.924 12.6141 127.321 12.7224 127.58 12.8223L126.703 15.8461C126.527 15.7961 126.301 15.7378 126.025 15.6712C125.75 15.5962 125.415 15.5587 125.022 15.5587C124.111 15.5587 123.459 15.7836 123.066 16.2334C122.681 16.6833 122.489 17.333 122.489 18.1827V39.0992H118.74Z" fill="#5961F8"/>
<path d="M139.5 19.907V22.9058H128.979V19.907H139.5ZM131.8 15.3088H135.55V33.464C135.55 34.1887 135.658 34.7343 135.876 35.1008C136.093 35.459 136.373 35.7048 136.716 35.838C137.067 35.963 137.447 36.0255 137.857 36.0255C138.158 36.0255 138.421 36.0046 138.647 35.963C138.873 35.9213 139.048 35.888 139.174 35.863L139.851 38.9493C139.633 39.0326 139.324 39.1159 138.923 39.1992C138.522 39.2908 138.02 39.3408 137.418 39.3491C136.432 39.3658 135.512 39.1909 134.659 38.8243C133.806 38.4578 133.117 37.8914 132.59 37.125C132.063 36.3587 131.8 35.3966 131.8 34.2387V15.3088Z" fill="#5961F8"/>
<path d="M146.017 46.2963C145.457 46.2963 144.947 46.2505 144.487 46.1589C144.028 46.0756 143.685 45.9839 143.459 45.884L144.362 42.8227C145.048 43.006 145.658 43.0851 146.193 43.0601C146.728 43.0351 147.2 42.8352 147.61 42.4604C148.028 42.0855 148.396 41.4733 148.713 40.6236L149.177 39.3491L142.13 19.907H146.143L151.021 34.801H151.221L156.099 19.907H160.125L152.187 41.6607C151.819 42.6603 151.351 43.5058 150.782 44.1972C150.214 44.8969 149.537 45.4217 148.751 45.7715C147.965 46.1214 147.054 46.2963 146.017 46.2963Z" fill="#5961F8"/>
<path d="M179.869 27.1796C180.136 27.3311 180.288 27.5964 180.288 27.8616C180.212 27.9753 179.831 29.3015 177.283 33.6592C174.317 38.7368 172.986 39.4567 172.149 39.4567C170.324 39.4567 169.868 34.4549 169.069 27.0659C167.054 27.748 165.609 27.9374 164.62 27.9374C164.239 27.9374 163.973 27.8995 163.707 27.8616C161.007 37.6379 160.931 39.4567 160.056 39.4567C159.6 39.4567 159.258 39.0778 159.258 38.661C159.258 38.6231 159.296 38.5852 159.296 38.5094C159.372 38.4336 160.931 32.0677 162.718 25.7397C165.038 17.5549 166.331 12.5531 167.776 12.5531C172.149 12.5531 172.035 37.5242 172.872 37.5242C173.519 37.5242 178.576 28.1269 178.843 27.5585C178.995 27.2932 179.261 27.1417 179.565 27.1417C179.679 27.1417 179.755 27.1417 179.869 27.1796ZM164.125 26.3838C164.239 26.3838 164.43 26.4217 164.62 26.4217C165.494 26.4217 166.863 26.2323 168.879 25.5123C168.575 21.4957 168.004 16.8349 167.624 15.0919C167.054 16.4939 165.685 20.6621 164.125 26.3838Z" fill="#5961F8"/>
<path d="M193.659 27.0659C193.925 27.2175 194.04 27.4448 194.04 27.7101C194.04 27.8237 194.001 27.9753 193.963 28.089C193.051 29.7941 187.841 39.2673 185.863 39.2673C183.658 39.2673 184.228 28.9605 183.962 26.9143C182.973 27.9374 181.604 28.5437 180.273 28.5437C178.638 28.5437 176.318 27.369 176.318 24.7166C176.318 22.8598 177.573 20.9273 179.36 20.9273C180.844 20.9273 181.338 21.9883 181.338 23.2388C181.338 24.565 180.805 26.1186 180.273 26.9901C181.414 26.9522 182.669 26.687 183.582 24.6408C183.924 23.8829 184.342 23.5419 184.798 23.5419C185.521 23.5419 186.624 24.6029 186.624 26.3459C186.624 27.7101 186.472 30.1731 186.472 32.6361C186.472 34.2276 186.51 35.7812 186.738 37.0316C187.689 35.7433 192.252 28.089 192.632 27.369C192.747 27.1417 193.051 26.9901 193.317 26.9901C193.431 26.9901 193.545 27.028 193.659 27.0659ZM179.665 22.5188C178.638 22.5188 178.105 23.4661 178.105 24.4134C178.105 25.0955 178.41 25.8533 178.942 26.2323C179.17 25.967 179.969 24.7166 179.969 23.1251C179.969 22.8219 179.893 22.5567 179.665 22.5188Z" fill="#5961F8"/>
<path d="M201.582 27.0659C201.848 27.2175 202 27.4448 202 27.7101C202 27.6343 201.886 28.5816 198.768 33.5455C198.007 34.7581 195.497 39.3051 193.634 39.3051C192.341 39.3051 191.998 36.198 191.998 32.5603C191.998 28.2406 192.493 23.2388 192.531 21.9125C191.39 21.9125 187.967 22.1778 187.967 21.0031C187.967 20.5484 188.348 20.2453 188.766 20.2453C190.211 20.2453 191.428 20.3968 192.607 20.3968C193.101 16.6076 192.341 12.6289 194.698 12.6289C195.573 12.6289 195.877 13.0836 195.877 14.1825C195.877 16.0013 195.649 18.2749 195.649 20.2453C199.528 19.9421 199.376 19.639 199.49 19.639C199.908 19.639 200.289 19.98 200.289 20.3968C200.289 20.7 200.061 20.9273 199.756 21.0031C199.642 21.041 198.235 21.5715 195.573 21.7989C195.345 27.1417 194.508 33.0529 194.508 36.3116C194.508 36.6148 194.508 36.88 194.546 37.1453C195.839 35.6296 200.213 28.089 200.555 27.369C200.669 27.1417 200.935 26.9901 201.201 26.9901C201.354 26.9901 201.468 27.028 201.582 27.0659Z" fill="#5961F8"/>
</svg>
