<svg width="40" height="41" viewBox="0 0 40 41" fill="none" xmlns="http://www.w3.org/2000/svg">
<path opacity="0.2" d="M18.9719 1.48583C19.1851 0.348098 20.8148 0.348092 21.0281 1.48583L22.2191 7.84117C22.3826 8.71345 23.4897 8.99863 24.0542 8.31387L28.0553 3.46064C28.7875 2.57252 30.208 3.34602 29.8592 4.44292L27.8308 10.8225C27.5681 11.6488 28.367 12.4176 29.1825 12.1233L35.1365 9.97528C36.2059 9.58945 37.0362 10.9463 36.206 11.723L31.284 16.3274C30.6665 16.905 30.954 17.9385 31.781 18.1143L38.1888 19.4769C39.2933 19.7118 39.2933 21.2882 38.1888 21.5231L31.781 22.8857C30.954 23.0615 30.6665 24.095 31.284 24.6726L36.206 29.277C37.0362 30.0537 36.2059 31.4105 35.1365 31.0247L29.1825 28.8767C28.367 28.5824 27.5681 29.3512 27.8308 30.1775L29.8592 36.5571C30.208 37.654 28.7875 38.4275 28.0553 37.5394L24.0542 32.6861C23.4897 32.0014 22.3826 32.2865 22.2191 33.1588L21.0281 39.5142C20.8148 40.6519 19.1851 40.6519 18.9719 39.5142L17.7809 33.1588C17.6174 32.2865 16.5103 32.0014 15.9458 32.6861L11.9447 37.5394C11.2125 38.4275 9.79204 37.654 10.1408 36.5571L12.1692 30.1775C12.4319 29.3512 11.633 28.5824 10.8175 28.8767L4.86354 31.0247C3.79411 31.4105 2.96377 30.0537 3.79403 29.277L8.71603 24.6726C9.33347 24.095 9.04603 23.0615 8.21904 22.8857L1.81125 21.5231C0.7067 21.2882 0.7067 19.7118 1.81125 19.4769L8.21904 18.1143C9.04603 17.9385 9.33347 16.905 8.71603 16.3274L3.79402 11.723C2.96377 10.9463 3.79411 9.58946 4.86354 9.97528L10.8174 12.1233C11.633 12.4176 12.4319 11.6488 12.1692 10.8225L10.1408 4.44292C9.79204 3.34601 11.2125 2.57252 11.9447 3.46063L15.9458 8.31387C16.5103 8.99863 17.6174 8.71346 17.7809 7.84117L18.9719 1.48583Z" fill="white" fill-opacity="0.6"/>
</svg>
