<svg width="40" height="40" viewBox="0 0 40 40" fill="none" xmlns="http://www.w3.org/2000/svg">
<path d="M36.739 1.38169V1.94737H40V1.38169H36.739ZM38.0656 0V3.44611H38.6701V0H38.0656Z" fill="white" fill-opacity="0.2"/>
<path d="M36.739 10.5201V11.0858H40V10.5201H36.739ZM38.0656 9.13839V12.5845H38.6701V9.13839H38.0656Z" fill="white" fill-opacity="0.2"/>
<path d="M36.739 19.6588V20.2244H40V19.6588H36.739ZM38.0656 18.2771V21.7232H38.6701V18.2771H38.0656Z" fill="white" fill-opacity="0.2"/>
<path d="M27.5542 1.38169V1.94737H30.8153V1.38169H27.5542ZM28.8809 0V3.44611H29.4854V0H28.8809Z" fill="white" fill-opacity="0.2"/>
<path d="M27.5542 10.5201V11.0858H30.8153V10.5201H27.5542ZM28.8809 9.13839V12.5845H29.4854V9.13839H28.8809Z" fill="white" fill-opacity="0.2"/>
<path d="M27.5542 19.6588V20.2244H30.8153V19.6588H27.5542ZM28.8809 18.2771V21.7232H29.4854V18.2771H28.8809Z" fill="white" fill-opacity="0.2"/>
<path d="M27.5542 28.7971V29.3628H30.8153V28.7971H27.5542ZM28.8809 27.4155V30.8616H29.4854V27.4155H28.8809Z" fill="white" fill-opacity="0.2"/>
<path d="M18.3695 1.38169V1.94737H21.6305V1.38169H18.3695ZM19.6961 0V3.44611H20.3006V0H19.6961Z" fill="white" fill-opacity="0.2"/>
<path d="M18.3695 10.5201V11.0858H21.6305V10.5201H18.3695ZM19.6961 9.13839V12.5845H20.3006V9.13839H19.6961Z" fill="white" fill-opacity="0.2"/>
<path d="M18.3695 19.6588V20.2244H21.6305V19.6588H18.3695ZM19.6961 18.2771V21.7232H20.3006V18.2771H19.6961Z" fill="white" fill-opacity="0.2"/>
<path d="M18.3695 28.7971V29.3628H21.6305V28.7971H18.3695ZM19.6961 27.4155V30.8616H20.3006V27.4155H19.6961Z" fill="white" fill-opacity="0.2"/>
<path d="M18.3695 37.9355V38.5012H21.6305V37.9355H18.3695ZM19.6961 36.5538V39.9999H20.3006V36.5538H19.6961Z" fill="white" fill-opacity="0.2"/>
<path d="M9.1847 1.38169V1.94737H12.4457V1.38169H9.1847ZM10.5113 0V3.44611H11.1158V0H10.5113Z" fill="white" fill-opacity="0.2"/>
<path d="M9.18475 10.5201V11.0858H12.4458V10.5201H9.18475ZM10.5114 9.13839V12.5845H11.1159V9.13839H10.5114Z" fill="white" fill-opacity="0.2"/>
<path d="M9.18475 19.6588V20.2244H12.4458V19.6588H9.18475ZM10.5114 18.2771V21.7232H11.1159V18.2771H10.5114Z" fill="white" fill-opacity="0.2"/>
<path d="M9.1847 28.7972V29.3628H12.4457V28.7972H9.1847ZM10.5113 27.4155V30.8616H11.1158V27.4155H10.5113Z" fill="white" fill-opacity="0.2"/>
<path d="M9.1847 37.9356V38.5013H12.4457V37.9356H9.1847ZM10.5113 36.5539V40H11.1158V36.5539H10.5113Z" fill="white" fill-opacity="0.2"/>
<path d="M0 1.38169V1.94737H3.261V1.38169H0ZM1.32662 0V3.44611H1.93111V0H1.32662Z" fill="white" fill-opacity="0.2"/>
<path d="M0 10.5201V11.0858H3.261V10.5201H0ZM1.32662 9.13839V12.5845H1.93111V9.13839H1.32662Z" fill="white" fill-opacity="0.2"/>
<path d="M0 19.6588V20.2244H3.261V19.6588H0ZM1.32662 18.2771V21.7232H1.93111V18.2771H1.32662Z" fill="white" fill-opacity="0.2"/>
<path d="M0 28.7971V29.3628H3.261V28.7971H0ZM1.32662 27.4155V30.8616H1.93111V27.4155H1.32662Z" fill="white" fill-opacity="0.2"/>
<path d="M0 37.9355V38.5012H3.261V37.9355H0ZM1.32662 36.5538V39.9999H1.93111V36.5538H1.32662Z" fill="white" fill-opacity="0.2"/>
</svg>
