<svg width="36" height="29" viewBox="0 0 36 29" fill="none" xmlns="http://www.w3.org/2000/svg">
<path d="M17.9678 13.7846C18.7538 14.4333 19.4537 15.1873 20.0425 16.0197C20.6172 16.8547 21.0857 17.7494 21.4345 18.6779C21.7897 19.5816 22.0416 20.5087 22.1847 21.4392C22.332 22.3692 22.3187 23.2926 22.1456 24.1673C22.0564 24.6076 21.902 25.0223 21.6872 25.3985C21.4695 25.7932 21.1601 26.1201 20.781 26.3561C20.3542 26.6142 19.8308 26.7047 19.2942 26.6132C18.7453 26.5054 18.2137 26.245 17.7609 25.8622C17.5464 25.6878 17.3437 25.498 17.1549 25.2947C16.9797 25.0954 16.8136 24.8885 16.6572 24.6749C16.5063 24.4696 16.3674 24.2567 16.2414 24.0373L16.0366 23.7026L15.8673 23.3772C15.4498 22.5433 15.1078 21.6825 14.8463 20.807C14.5787 19.9509 14.4276 19.0794 14.3975 18.2185C14.3697 17.402 14.4597 16.6044 14.6648 15.8506L14.735 15.5771L14.8306 15.3167C14.892 15.1453 14.9556 14.9667 15.0198 14.8032C15.1573 14.4757 15.3129 14.1584 15.4858 13.8525C15.587 13.6759 15.6985 13.5056 15.8099 13.3353C15.6234 13.2295 15.4478 13.1451 15.2462 13.0375C14.4932 12.6689 13.7101 12.3981 12.9179 12.2324C12.1591 12.0834 11.4002 12.0504 10.6676 12.1345C9.28006 12.3401 8.00679 12.873 6.94353 13.6933C5.94787 14.4627 5.08615 15.3878 4.38323 16.4417C3.73589 17.404 3.17556 18.4308 2.70772 19.5119C2.28674 20.4536 1.93344 21.4329 1.65018 22.4434C1.22688 23.9215 1.05903 25.4989 1.15329 27.1131C1.24278 28.2751 1.43221 28.948 1.36408 28.9322C1.28041 28.7809 1.22049 28.6204 1.18681 28.4572C1.05705 28.0007 0.96096 27.5401 0.899388 27.0797C0.70535 25.421 0.802216 23.7867 1.18546 22.2533C1.43554 21.2028 1.76068 20.1828 2.15857 19.2007C2.60394 18.0715 3.14666 16.9961 3.7813 15.9855C4.48605 14.859 5.36245 13.8659 6.38437 13.0358C7.51037 12.1175 8.87372 11.5113 10.3685 11.2644C11.1851 11.1525 12.034 11.1735 12.8852 11.3267C13.7737 11.4965 14.6539 11.7877 15.5009 12.192C15.794 12.3273 16.0818 12.4785 16.3629 12.6446C16.8513 12.0402 17.4 11.4909 18.0024 11.0031C19.6184 9.72109 21.4521 8.72064 23.4445 8.03409C24.8831 7.52568 26.3787 7.14354 27.9167 6.89139C29.6165 6.59821 31.3719 6.49879 33.1525 6.59485L33.7098 6.64765L33.2331 6.33265C32.7275 5.98139 32.254 5.6164 31.806 5.2646C31.0203 4.63229 30.2746 3.94695 29.5753 3.21456C28.3791 1.96055 27.7989 1.06622 27.8913 0.991842C27.9837 0.91746 28.7429 1.64218 29.9904 2.7236C30.6228 3.26159 31.3761 3.89239 32.2475 4.53506C32.6846 4.86034 33.1468 5.18868 33.6313 5.51219C33.8773 5.67314 34.1259 5.83692 34.3793 5.99626C34.5074 6.07735 34.6248 6.14203 34.8071 6.27255C35.049 6.43771 35.2429 6.67096 35.359 6.93674C35.4181 7.07998 35.449 7.22951 35.4499 7.37602C35.4489 7.49056 35.4327 7.60206 35.4019 7.70767C35.3522 7.86171 35.2853 8.00724 35.2024 8.14178C35.0777 8.36083 34.9478 8.57422 34.8253 8.78599C34.5728 9.20608 34.3246 9.60655 34.0856 9.988C33.5974 10.7396 33.1353 11.3835 32.7197 11.9323C31.9074 12.992 31.3058 13.5862 31.1847 13.4883C31.0636 13.3904 31.4335 12.6169 32.0834 11.4241L33.2444 9.34901C33.4639 8.95931 33.6918 8.55133 33.9283 8.12508C34.0457 7.9127 34.168 7.69587 34.2903 7.47904C34.2939 7.47342 34.2989 7.46887 34.3048 7.4657C34.0929 7.48775 33.791 7.50888 33.3561 7.52139C31.6665 7.58675 30.0006 7.76662 28.3692 8.05983C26.9006 8.34091 25.4707 8.7332 24.0908 9.23368C22.2046 9.90188 20.4665 10.8589 18.9293 12.0757C18.4275 12.4859 17.9646 12.9407 17.5449 13.4359C17.6915 13.547 17.8381 13.658 17.9799 13.7735L17.9678 13.7846ZM16.6376 14.7082C16.4801 14.9763 16.3382 15.2549 16.2124 15.543C16.1525 15.6868 16.1005 15.8392 16.0434 15.9909L15.9615 16.2177L15.9001 16.457C15.7162 17.1016 15.6347 17.7862 15.6582 18.4879C15.6791 19.2303 15.8048 19.9826 16.0316 20.7222C16.2581 21.5097 16.5584 22.2846 16.9283 23.0354L17.071 23.3173L17.2283 23.5858C17.3311 23.7635 17.4426 23.9369 17.5623 24.1051C17.6761 24.2776 17.801 24.4087 17.9373 24.5815C18.0661 24.7224 18.2047 24.8539 18.3518 24.9745C18.5886 25.2034 18.882 25.3574 19.1863 25.4127C19.4905 25.468 19.7886 25.4215 20.0341 25.2802C20.5637 24.9014 20.9161 24.3246 21.031 23.6486C21.1859 22.9034 21.2057 22.1157 21.0896 21.3209C20.969 20.4838 20.7507 19.6488 20.4393 18.8337C20.1441 18.0118 19.7415 17.2183 19.2434 16.4765C18.7326 15.7453 18.1237 15.0822 17.4386 14.5111C17.2914 14.3848 17.1394 14.263 16.9876 14.1463C16.8616 14.3299 16.7407 14.5142 16.6178 14.7158" fill="white" fill-opacity="0.4"/>
</svg>
