<svg width="24" height="24" viewBox="0 0 24 24" fill="none" xmlns="http://www.w3.org/2000/svg">
<path d="M18.7499 19.0001H4.74987C4.57922 18.9995 4.41389 18.9407 4.28117 18.8334C4.14845 18.7261 4.05628 18.5768 4.01987 18.4101L2.51987 11.6801C2.44468 11.3455 2.47006 10.9961 2.59282 10.6758C2.71559 10.3556 2.93026 10.0787 3.20987 9.8801C3.48449 9.67465 3.81482 9.55706 4.15748 9.54278C4.50015 9.5285 4.83912 9.6182 5.12987 9.8001L7.25987 11.0801C7.32111 11.1031 7.38863 11.1031 7.44987 11.0801C7.48273 11.0739 7.51394 11.0609 7.54149 11.042C7.56905 11.0231 7.59234 10.9986 7.60987 10.9701L10.2299 6.3701C10.3854 6.11124 10.6053 5.89705 10.8682 5.74834C11.131 5.59964 11.4279 5.52148 11.7299 5.52148C12.0319 5.52148 12.3287 5.59964 12.5916 5.74834C12.8544 5.89705 13.0743 6.11124 13.2299 6.3701L15.8499 10.9701C15.8674 10.9986 15.8907 11.0231 15.9183 11.042C15.9458 11.0609 15.977 11.0739 16.0099 11.0801C16.0711 11.1031 16.1386 11.1031 16.1999 11.0801L18.3299 9.8001C18.6211 9.61953 18.9598 9.53062 19.3022 9.54488C19.6445 9.55915 19.9747 9.67593 20.2499 9.8801C20.5295 10.0787 20.7442 10.3556 20.8669 10.6758C20.9897 10.9961 21.0151 11.3455 20.9399 11.6801L19.4399 18.4101C19.4052 18.5703 19.3189 18.7148 19.1943 18.8214C19.0697 18.9279 18.9136 18.9907 18.7499 19.0001ZM5.34987 17.5001H18.1499L19.5099 11.3501C19.5212 11.3042 19.5186 11.256 19.5026 11.2115C19.4866 11.167 19.4578 11.1283 19.4199 11.1001C19.3797 11.0693 19.3305 11.0526 19.2799 11.0526C19.2292 11.0526 19.18 11.0693 19.1399 11.1001L17.0099 12.3701C16.811 12.4908 16.5901 12.5707 16.36 12.605C16.1299 12.6394 15.8953 12.6275 15.6699 12.5701C15.215 12.4456 14.8273 12.1476 14.5899 11.7401L11.9699 7.1401C11.8399 6.9201 11.6599 6.9201 11.5299 7.1401L8.90987 11.7301C8.67249 12.1375 8.28469 12.4356 7.82987 12.5601C7.60443 12.6175 7.36981 12.6294 7.13973 12.595C6.90965 12.5607 6.68872 12.4808 6.48987 12.3601L4.35987 11.0901C4.31971 11.0593 4.2705 11.0426 4.21987 11.0426C4.16925 11.0426 4.12004 11.0593 4.07987 11.0901C4.04192 11.1183 4.01313 11.157 3.99712 11.2015C3.98111 11.246 3.97859 11.2942 3.98987 11.3401L5.34987 17.5001Z" fill="url(#paint0_linear_450_1017)"/>
<path d="M19 18H5L3 11L4 10L8 12L12 6L16 12L19 10L20 11L19 18Z" fill="url(#paint1_linear_450_1017)"/>
<path d="M11.75 4.5C12.4404 4.5 13 3.94036 13 3.25C13 2.55964 12.4404 2 11.75 2C11.0596 2 10.5 2.55964 10.5 3.25C10.5 3.94036 11.0596 4.5 11.75 4.5Z" fill="url(#paint2_linear_450_1017)"/>
<path d="M2.25 9.5C2.94036 9.5 3.5 8.94036 3.5 8.25C3.5 7.55964 2.94036 7 2.25 7C1.55964 7 1 7.55964 1 8.25C1 8.94036 1.55964 9.5 2.25 9.5Z" fill="url(#paint3_linear_450_1017)"/>
<path d="M21.25 9.5C21.9404 9.5 22.5 8.94036 22.5 8.25C22.5 7.55964 21.9404 7 21.25 7C20.5596 7 20 7.55964 20 8.25C20 8.94036 20.5596 9.5 21.25 9.5Z" fill="url(#paint4_linear_450_1017)"/>
<path d="M17.4001 22.0001H6.10007C5.68404 22.0007 5.2814 21.8531 4.96436 21.5837C4.64733 21.3143 4.43663 20.9408 4.37007 20.5301L4.01007 18.3701C3.9922 18.2622 3.99816 18.1516 4.02753 18.0463C4.0569 17.9409 4.10896 17.8432 4.18007 17.7601C4.24982 17.6772 4.33717 17.6108 4.43576 17.5658C4.53435 17.5209 4.64172 17.4984 4.75007 17.5001H18.7501C18.8584 17.4984 18.9658 17.5209 19.0644 17.5658C19.163 17.6108 19.2503 17.6772 19.3201 17.7601C19.3912 17.8432 19.4432 17.9409 19.4726 18.0463C19.502 18.1516 19.5079 18.2622 19.4901 18.3701L19.1301 20.5301C19.0635 20.9408 18.8528 21.3143 18.5358 21.5837C18.2187 21.8531 17.8161 22.0007 17.4001 22.0001ZM5.63007 19.0001L5.85007 20.2901C5.85965 20.3492 5.89017 20.403 5.93605 20.4415C5.98194 20.4801 6.04015 20.5009 6.10007 20.5001H17.4001C17.46 20.5009 17.5182 20.4801 17.5641 20.4415C17.61 20.403 17.6405 20.3492 17.6501 20.2901L17.8701 19.0001H5.63007Z" fill="#4E75F0"/>
<defs>
<linearGradient id="paint0_linear_450_1017" x1="11.7299" y1="5.52148" x2="11.7299" y2="19.0001" gradientUnits="userSpaceOnUse">
<stop stop-color="#19D2C8"/>
<stop offset="1" stop-color="#5666F6"/>
</linearGradient>
<linearGradient id="paint1_linear_450_1017" x1="11.5" y1="6" x2="11.5" y2="18" gradientUnits="userSpaceOnUse">
<stop stop-color="#19D2C8"/>
<stop offset="1" stop-color="#5666F6"/>
</linearGradient>
<linearGradient id="paint2_linear_450_1017" x1="11.75" y1="2" x2="11.75" y2="4.5" gradientUnits="userSpaceOnUse">
<stop stop-color="#19D2C8"/>
<stop offset="1" stop-color="#5666F6"/>
</linearGradient>
<linearGradient id="paint3_linear_450_1017" x1="2.25" y1="7" x2="2.25" y2="9.5" gradientUnits="userSpaceOnUse">
<stop stop-color="#19D2C8"/>
<stop offset="1" stop-color="#5666F6"/>
</linearGradient>
<linearGradient id="paint4_linear_450_1017" x1="21.25" y1="7" x2="21.25" y2="9.5" gradientUnits="userSpaceOnUse">
<stop stop-color="#19D2C8"/>
<stop offset="1" stop-color="#5666F6"/>
</linearGradient>
</defs>
</svg>
