<svg width="794" height="25" viewBox="0 0 794 25" fill="none" xmlns="http://www.w3.org/2000/svg">
<g clip-path="url(#clip0_1910_318)">
<mask id="mask0_1910_318" style="mask-type:luminance" maskUnits="userSpaceOnUse" x="315" y="0" width="344" height="25">
<path d="M659 0H315V25H659V0Z" fill="white"/>
</mask>
<g mask="url(#mask0_1910_318)">
<path d="M314.499 25L303.674 6.25H325.324L314.499 25Z" fill="white"/>
<path d="M329.499 25L318.674 6.25H340.324L329.499 25Z" fill="white"/>
<path d="M344.499 25L333.674 6.25H355.324L344.499 25Z" fill="white"/>
<path d="M359.499 25L348.674 6.25H370.324L359.499 25Z" fill="white"/>
<path d="M374.499 25L363.674 6.25H385.324L374.499 25Z" fill="white"/>
<path d="M389.499 25L378.674 6.25H400.324L389.499 25Z" fill="white"/>
<path d="M404.499 25L393.674 6.25H415.324L404.499 25Z" fill="white"/>
<path d="M419.499 25L408.674 6.25H430.324L419.499 25Z" fill="white"/>
<path d="M434.499 25L423.674 6.25H445.324L434.499 25Z" fill="white"/>
<path d="M449.499 25L438.674 6.25H460.324L449.499 25Z" fill="white"/>
<path d="M464.499 25L453.674 6.25H475.324L464.499 25Z" fill="white"/>
<path d="M479.499 25L468.674 6.25H490.324L479.499 25Z" fill="white"/>
<path d="M494.499 25L483.674 6.25H505.324L494.499 25Z" fill="white"/>
<path d="M509.499 25L498.674 6.25H520.324L509.499 25Z" fill="white"/>
<path d="M524.499 25L513.674 6.25H535.324L524.499 25Z" fill="white"/>
<path d="M539.499 25L528.674 6.25H550.324L539.499 25Z" fill="white"/>
<path d="M554.499 25L543.674 6.25H565.324L554.499 25Z" fill="white"/>
<path d="M569.499 25L558.674 6.25H580.324L569.499 25Z" fill="white"/>
<path d="M584.499 25L573.674 6.25H595.324L584.499 25Z" fill="white"/>
<path d="M599.499 25L588.674 6.25H610.324L599.499 25Z" fill="white"/>
<path d="M614.499 25L603.674 6.25H625.324L614.499 25Z" fill="white"/>
<path d="M629.499 25L618.674 6.25H640.324L629.499 25Z" fill="white"/>
<path d="M644.499 25L633.674 6.25H655.324L644.499 25Z" fill="white"/>
<path d="M659.499 25L648.674 6.25H670.324L659.499 25Z" fill="white"/>
</g>
<mask id="mask1_1910_318" style="mask-type:luminance" maskUnits="userSpaceOnUse" x="0" y="0" width="344" height="25">
<path d="M344 0H0V25H344V0Z" fill="white"/>
</mask>
<g mask="url(#mask1_1910_318)">
<path d="M-0.500844 25L-11.3262 6.25H10.3244L-0.500844 25Z" fill="white"/>
<path d="M14.4991 25L3.67383 6.25H25.3244L14.4991 25Z" fill="white"/>
<path d="M29.4991 25L18.6738 6.25H40.3244L29.4991 25Z" fill="white"/>
<path d="M44.4991 25L33.6738 6.25H55.3244L44.4991 25Z" fill="white"/>
<path d="M59.4991 25L48.6738 6.25H70.3244L59.4991 25Z" fill="white"/>
<path d="M74.4991 25L63.6738 6.25H85.3244L74.4991 25Z" fill="white"/>
<path d="M89.4991 25L78.6738 6.25H100.324L89.4991 25Z" fill="white"/>
<path d="M104.499 25L93.6738 6.25H115.324L104.499 25Z" fill="white"/>
<path d="M119.499 25L108.674 6.25H130.324L119.499 25Z" fill="white"/>
<path d="M134.499 25L123.674 6.25H145.324L134.499 25Z" fill="white"/>
<path d="M149.499 25L138.674 6.25H160.324L149.499 25Z" fill="white"/>
<path d="M164.499 25L153.674 6.25H175.324L164.499 25Z" fill="white"/>
<path d="M179.499 25L168.674 6.25H190.324L179.499 25Z" fill="white"/>
<path d="M194.499 25L183.674 6.25H205.324L194.499 25Z" fill="white"/>
<path d="M209.499 25L198.674 6.25H220.324L209.499 25Z" fill="white"/>
<path d="M224.499 25L213.674 6.25H235.324L224.499 25Z" fill="white"/>
<path d="M239.499 25L228.674 6.25H250.324L239.499 25Z" fill="white"/>
<path d="M254.499 25L243.674 6.25H265.324L254.499 25Z" fill="white"/>
<path d="M269.499 25L258.674 6.25H280.324L269.499 25Z" fill="white"/>
<path d="M284.499 25L273.674 6.25H295.324L284.499 25Z" fill="white"/>
<path d="M299.499 25L288.674 6.25H310.324L299.499 25Z" fill="white"/>
<path d="M314.499 25L303.674 6.25H325.324L314.499 25Z" fill="white"/>
<path d="M329.499 25L318.674 6.25H340.324L329.499 25Z" fill="white"/>
<path d="M344.499 25L333.674 6.25H355.324L344.499 25Z" fill="white"/>
</g>
<mask id="mask2_1910_318" style="mask-type:luminance" maskUnits="userSpaceOnUse" x="450" y="0" width="344" height="25">
<path d="M794 0H450V25H794V0Z" fill="white"/>
</mask>
<g mask="url(#mask2_1910_318)">
<path d="M449.499 25L438.674 6.25H460.324L449.499 25Z" fill="white"/>
<path d="M464.499 25L453.674 6.25H475.324L464.499 25Z" fill="white"/>
<path d="M479.499 25L468.674 6.25H490.324L479.499 25Z" fill="white"/>
<path d="M494.499 25L483.674 6.25H505.324L494.499 25Z" fill="white"/>
<path d="M509.499 25L498.674 6.25H520.324L509.499 25Z" fill="white"/>
<path d="M524.499 25L513.674 6.25H535.324L524.499 25Z" fill="white"/>
<path d="M539.499 25L528.674 6.25H550.324L539.499 25Z" fill="white"/>
<path d="M554.499 25L543.674 6.25H565.324L554.499 25Z" fill="white"/>
<path d="M569.499 25L558.674 6.25H580.324L569.499 25Z" fill="white"/>
<path d="M584.499 25L573.674 6.25H595.324L584.499 25Z" fill="white"/>
<path d="M599.499 25L588.674 6.25H610.324L599.499 25Z" fill="white"/>
<path d="M614.499 25L603.674 6.25H625.324L614.499 25Z" fill="white"/>
<path d="M629.499 25L618.674 6.25H640.324L629.499 25Z" fill="white"/>
<path d="M644.499 25L633.674 6.25H655.324L644.499 25Z" fill="white"/>
<path d="M659.499 25L648.674 6.25H670.324L659.499 25Z" fill="white"/>
<path d="M674.499 25L663.674 6.25H685.324L674.499 25Z" fill="white"/>
<path d="M689.499 25L678.674 6.25H700.324L689.499 25Z" fill="white"/>
<path d="M704.499 25L693.674 6.25H715.324L704.499 25Z" fill="white"/>
<path d="M719.499 25L708.674 6.25H730.324L719.499 25Z" fill="white"/>
<path d="M734.499 25L723.674 6.25H745.324L734.499 25Z" fill="white"/>
<path d="M749.499 25L738.674 6.25H760.324L749.499 25Z" fill="white"/>
<path d="M764.499 25L753.674 6.25H775.324L764.499 25Z" fill="white"/>
<path d="M779.499 25L768.674 6.25H790.324L779.499 25Z" fill="white"/>
<path d="M794.499 25L783.674 6.25H805.324L794.499 25Z" fill="white"/>
</g>
</g>
<defs>
<clipPath id="clip0_1910_318">
<rect width="794" height="25" fill="white"/>
</clipPath>
</defs>
</svg>
