<svg xmlns="http://www.w3.org/2000/svg" width="25" height="25" viewBox="0 0 25 25" fill="none">
                  <g clip-path="url(#clip0_5212_1084)">
                    <path d="M17.6478 8.75536C17.538 8.45786 17.3628 8.18858 17.1352 7.96755C16.9142 7.73997 16.6451 7.56482 16.3474 7.45503C16.106 7.36127 15.7433 7.24966 15.0753 7.21925C14.3527 7.1863 14.136 7.1792 12.3066 7.1792C10.477 7.1792 10.2604 7.18612 9.53791 7.21907C8.8699 7.24966 8.50704 7.36127 8.2658 7.45503C7.96812 7.56482 7.69884 7.73997 7.47799 7.96755C7.2504 8.18858 7.07526 8.45768 6.96529 8.75536C6.87152 8.99678 6.75991 9.35965 6.72951 10.0277C6.69655 10.7501 6.68945 10.9668 6.68945 12.7964C6.68945 14.6258 6.69655 14.8424 6.72951 15.5651C6.75991 16.2331 6.87152 16.5958 6.96529 16.8372C7.07526 17.1349 7.25022 17.404 7.47781 17.625C7.69884 17.8526 7.96793 18.0277 8.26562 18.1375C8.50704 18.2315 8.8699 18.3431 9.53791 18.3735C10.2604 18.4064 10.4768 18.4133 12.3064 18.4133C14.1362 18.4133 14.3529 18.4064 15.0751 18.3735C15.7431 18.3431 16.106 18.2315 16.3474 18.1375C16.945 17.907 17.4173 17.4347 17.6478 16.8372C17.7415 16.5958 17.8531 16.2331 17.8837 15.5651C17.9167 14.8424 17.9236 14.6258 17.9236 12.7964C17.9236 10.9668 17.9167 10.7501 17.8837 10.0277C17.8533 9.35965 17.7417 8.99678 17.6478 8.75536ZM12.3066 16.3145C10.3634 16.3145 8.78815 14.7394 8.78815 12.7962C8.78815 10.853 10.3634 9.2779 12.3066 9.2779C14.2496 9.2779 15.8249 10.853 15.8249 12.7962C15.8249 14.7394 14.2496 16.3145 12.3066 16.3145ZM15.964 9.96102C15.5099 9.96102 15.1418 9.59288 15.1418 9.1388C15.1418 8.68472 15.5099 8.31658 15.964 8.31658C16.4181 8.31658 16.7862 8.68472 16.7862 9.1388C16.786 9.59288 16.4181 9.96102 15.964 9.96102Z" fill="#8D8D8D"></path>
                    <path d="M14.5892 12.7966C14.5892 14.0579 13.5667 15.0804 12.3053 15.0804C11.044 15.0804 10.0215 14.0579 10.0215 12.7966C10.0215 11.5352 11.044 10.5127 12.3053 10.5127C13.5667 10.5127 14.5892 11.5352 14.5892 12.7966Z" fill="#8D8D8D"></path>
                    <path d="M22.516 0.864746H2.09414C1.14356 0.864746 0.373047 1.63526 0.373047 2.58584V23.0077C0.373047 23.9583 1.14356 24.7288 2.09414 24.7288H22.516C23.4666 24.7288 24.2371 23.9583 24.2371 23.0077V2.58584C24.2371 1.63526 23.4666 0.864746 22.516 0.864746ZM19.1153 15.6215C19.0822 16.3509 18.9662 16.8489 18.7969 17.2847C18.4409 18.2051 17.7134 18.9326 16.793 19.2886C16.3573 19.4579 15.8592 19.5737 15.13 19.607C14.3994 19.6403 14.166 19.6483 12.3052 19.6483C10.4443 19.6483 10.2111 19.6403 9.48027 19.607C8.75109 19.5737 8.25295 19.4579 7.81726 19.2886C7.35991 19.1165 6.94589 18.8469 6.6036 18.4982C6.25512 18.1561 5.98548 17.7419 5.81342 17.2847C5.6441 16.849 5.52812 16.3509 5.49498 15.6217C5.4613 14.8909 5.45347 14.6575 5.45347 12.7968C5.45347 10.936 5.4613 10.7026 5.4948 9.97197C5.52794 9.24261 5.64373 8.74465 5.81306 8.30878C5.98511 7.85161 6.25494 7.4374 6.6036 7.0953C6.9457 6.74664 7.35991 6.47699 7.81708 6.30494C8.25295 6.13562 8.75091 6.01982 9.48027 5.9865C10.2109 5.95318 10.4443 5.94517 12.3051 5.94517C14.1658 5.94517 14.3992 5.95318 15.1298 5.98668C15.8592 6.01982 16.3572 6.13562 16.793 6.30476C17.2502 6.47681 17.6644 6.74664 18.0067 7.0953C18.3552 7.43758 18.625 7.85161 18.7969 8.30878C18.9664 8.74465 19.0822 9.24261 19.1155 9.97197C19.1488 10.7026 19.1566 10.936 19.1566 12.7968C19.1566 14.6575 19.1488 14.8909 19.1153 15.6215Z" fill="#8D8D8D"></path>
                  </g>
                  <defs>
                    <clipPath id="clip0_5212_1084">
                      <rect x="0.373047" y="0.864746" width="23.864" height="23.864" rx="3" fill="white"></rect>
                    </clipPath>
                  </defs>
                </svg>