<svg xmlns="http://www.w3.org/2000/svg" width="25" height="25" viewBox="0 0 25 25" fill="none">
                  <g clip-path="url(#clip0_5212_1069)">
                    <path d="M11.2949 15.0324L15.1762 12.797L11.2949 10.5615V15.0324Z" fill="#8D8D8D"></path>
                    <path d="M22.9925 0.864746H2.5707C1.62012 0.864746 0.849609 1.63526 0.849609 2.58584V23.0077C0.849609 23.9583 1.62012 24.7288 2.5707 24.7288H22.9925C23.9431 24.7288 24.7136 23.9583 24.7136 23.0077V2.58584C24.7136 1.63526 23.9431 0.864746 22.9925 0.864746ZM20.2373 12.809C20.2373 12.809 20.2373 15.2288 19.9303 16.3957C19.7583 17.0344 19.2547 17.538 18.616 17.7099C17.4491 18.017 12.7816 18.017 12.7816 18.017C12.7816 18.017 8.12632 18.017 6.94725 17.6977C6.30856 17.5258 5.80496 17.022 5.6329 16.3833C5.32575 15.2288 5.32575 12.7968 5.32575 12.7968C5.32575 12.7968 5.32575 10.3771 5.6329 9.2102C5.80477 8.5715 6.32075 8.05552 6.94725 7.88365C8.11412 7.5765 12.7816 7.5765 12.7816 7.5765C12.7816 7.5765 17.4491 7.5765 18.616 7.89585C19.2547 8.06772 19.7583 8.5715 19.9303 9.2102C20.2497 10.3771 20.2373 12.809 20.2373 12.809Z" fill="#8D8D8D"></path>
                  </g>
                  <defs>
                    <clipPath id="clip0_5212_1069">
                      <rect x="0.849609" y="0.864746" width="23.864" height="23.864" rx="3" fill="white"></rect>
                    </clipPath>
                  </defs>
                </svg>