<svg width="27" height="25" viewBox="0 0 27 25" fill="none" xmlns="http://www.w3.org/2000/svg">
<path d="M9 11C5.4 10.6 3.16667 8.16667 2.5 7C4.9 18.2 6.16667 20.3333 6.5 20L17.5 20.5C21.9 20.5 22.3333 18.5 22 17.5C23.2 15.1 23.5 10.5 23.5 8.5L19 11C17.4 11 15.6667 9.33333 15 8.5L14 5L13 4.5L12 8.5L9 11Z" fill="#C8E7FF"/>
<path fill-rule="evenodd" clip-rule="evenodd" d="M15.7004 2.24359C15.7004 3.48238 14.7161 4.48719 13.5026 4.48719C12.2882 4.48719 11.3047 3.48238 11.3047 2.24359C11.3047 1.00481 12.289 0 13.5026 0C14.7161 0 15.7004 1.00481 15.7004 2.24359Z" fill="url(#paint0_linear_5131_793)"/>
<path fill-rule="evenodd" clip-rule="evenodd" d="M27.0012 6.08978C27.0012 7.32857 26.0169 8.33338 24.8033 8.33338C23.5898 8.33338 22.6055 7.32857 22.6055 6.08978C22.6055 4.851 23.5898 3.84619 24.8033 3.84619C26.0169 3.84619 27.0012 4.851 27.0012 6.08978Z" fill="url(#paint1_linear_5131_793)"/>
<path fill-rule="evenodd" clip-rule="evenodd" d="M4.39574 6.08978C4.39574 7.32857 3.4122 8.33338 2.19787 8.33338C0.983548 8.33338 0 7.32857 0 6.08978C0 4.851 0.984333 3.84619 2.19787 3.84619C3.41141 3.84619 4.39574 4.851 4.39574 6.08978Z" fill="url(#paint2_linear_5131_793)"/>
<path fill-rule="evenodd" clip-rule="evenodd" d="M25.0982 7.55997C25.1783 7.15211 24.9922 6.73945 24.6398 6.53432C24.285 6.3308 23.8423 6.38048 23.5409 6.66013C23.5409 6.66013 22.2268 7.87888 20.7448 9.25468C20.0517 9.89811 19.0902 10.1481 18.1804 9.92375C17.2699 9.69939 16.5273 9.02872 16.1984 8.13288L14.3812 3.18816C14.2431 2.81316 13.893 2.56396 13.4997 2.56396C13.1065 2.56396 12.7564 2.81316 12.6182 3.18816L10.801 8.13288C10.4721 9.02872 9.72958 9.69939 8.81904 9.92375C7.90849 10.1481 6.9477 9.89811 6.25459 9.25468C4.7726 7.87968 3.45858 6.66013 3.45858 6.66013C3.15716 6.38048 2.71445 6.3308 2.35965 6.53432C2.0072 6.73945 1.82117 7.15292 1.90123 7.55997C1.90123 7.55997 3.29924 14.6946 4.00884 18.3188C4.33145 19.9678 5.74987 21.1537 7.39591 21.1537H19.6035C21.2496 21.1537 22.668 19.9678 22.9906 18.3188C23.7002 14.6946 25.0982 7.55997 25.0982 7.55997ZM22.6892 10.0504L21.1436 17.943C20.996 18.6914 20.3524 19.2307 19.6035 19.2307H7.39591C6.64707 19.2307 6.00341 18.6914 5.85662 17.9422L4.31104 10.0496L4.98767 10.6778C6.14313 11.7499 7.74443 12.1673 9.26175 11.7931C10.7799 11.4189 12.0169 10.3012 12.5664 8.80837L13.4997 6.26429L14.4338 8.80917C14.9825 10.3012 16.2196 11.4189 17.7385 11.7939C19.2558 12.1681 20.8571 11.7507 22.0125 10.6786L22.6892 10.0504Z" fill="url(#paint3_linear_5131_793)"/>
<path fill-rule="evenodd" clip-rule="evenodd" d="M21.0365 23.0771H5.96538C5.44574 23.0771 5.02344 23.5082 5.02344 24.0387C5.02344 24.5691 5.44574 25.0002 5.96538 25.0002H21.0365C21.5561 25.0002 21.9784 24.5691 21.9784 24.0387C21.9784 23.5082 21.5561 23.0771 21.0365 23.0771Z" fill="url(#paint4_linear_5131_793)"/>
<defs>
<linearGradient id="paint0_linear_5131_793" x1="15.5374" y1="0.179486" x2="11.8115" y2="4.21842" gradientUnits="userSpaceOnUse">
<stop stop-color="#02BEFE"/>
<stop offset="1" stop-color="#525AFD"/>
</linearGradient>
<linearGradient id="paint1_linear_5131_793" x1="26.8382" y1="4.02568" x2="23.1123" y2="8.06461" gradientUnits="userSpaceOnUse">
<stop stop-color="#02BEFE"/>
<stop offset="1" stop-color="#525AFD"/>
</linearGradient>
<linearGradient id="paint2_linear_5131_793" x1="4.23275" y1="4.02568" x2="0.506808" y2="8.06461" gradientUnits="userSpaceOnUse">
<stop stop-color="#02BEFE"/>
<stop offset="1" stop-color="#525AFD"/>
</linearGradient>
<linearGradient id="paint3_linear_5131_793" x1="24.2551" y1="3.30755" x2="9.54872" y2="23.6463" gradientUnits="userSpaceOnUse">
<stop stop-color="#02BEFE"/>
<stop offset="1" stop-color="#525AFD"/>
</linearGradient>
<linearGradient id="paint4_linear_5131_793" x1="21.3498" y1="23.1541" x2="21.0247" y2="26.3248" gradientUnits="userSpaceOnUse">
<stop stop-color="#02BEFE"/>
<stop offset="1" stop-color="#525AFD"/>
</linearGradient>
</defs>
</svg>
