<svg width="28" height="28" viewBox="0 0 28 28" fill="none" xmlns="http://www.w3.org/2000/svg">
<path d="M7.00098 22H20.7335" stroke="white" stroke-width="0.75" stroke-miterlimit="10" stroke-linecap="round" stroke-linejoin="round"/>
<path d="M8.50195 23.8281H19.2328" stroke="white" stroke-width="0.75" stroke-miterlimit="10" stroke-linecap="round" stroke-linejoin="round"/>
<path d="M5 4.03674V25.7034C5 26.0482 5.13696 26.3788 5.38076 26.6226C5.62456 26.8664 5.95522 27.0034 6.3 27.0034H21.9C22.2448 27.0034 22.5754 26.8664 22.8192 26.6226C23.063 26.3788 23.2 26.0482 23.2 25.7034V4.90341C23.2 4.55863 23.063 4.22797 22.8192 3.98417C22.5754 3.74037 22.2448 3.60341 21.9 3.60341H20.1667V2.21198C20.1621 2.02929 20.1174 1.84984 20.0356 1.68643C19.9537 1.52302 19.8369 1.37966 19.6934 1.26657C19.5498 1.15348 19.3831 1.07343 19.2051 1.03214C19.027 0.990849 18.8421 0.989324 18.6634 1.02768C5.02167 3.69008 5.34407 3.57654 5.3523 3.61988C5.25417 3.63736 5.16525 3.6886 5.10091 3.76473C5.03658 3.84085 5.00088 3.93708 5 4.03674ZM22.3333 4.90341V25.7034C22.3333 25.8183 22.2877 25.9286 22.2064 26.0098C22.1251 26.0911 22.0149 26.1367 21.9 26.1367H6.3C6.18507 26.1367 6.07485 26.0911 5.99359 26.0098C5.91232 25.9286 5.86667 25.8183 5.86667 25.7034V4.47008H21.9C22.0149 4.47008 22.1251 4.51573 22.2064 4.597C22.2877 4.67826 22.3333 4.78848 22.3333 4.90341ZM18.8285 1.87831C18.8818 1.86456 18.9374 1.86259 18.9914 1.87252C19.0455 1.88245 19.0968 1.90404 19.1416 1.9358C19.1865 1.96757 19.2239 2.00873 19.2513 2.05642C19.2786 2.10412 19.2953 2.1572 19.3 2.21198V3.60341H9.94L18.8285 1.87831Z" fill="white"/>
<g clip-path="url(#clip0_45_225)">
<path d="M21.2734 18.1406H20.3672V17.5001C20.4633 17.4911 20.5585 17.4774 20.6504 17.4537C20.7584 17.4258 20.8298 17.3237 20.8192 17.2128L20.4323 13.1456C20.4368 13.1443 20.4409 13.142 20.4454 13.1404C20.4513 13.1382 20.4569 13.1362 20.4626 13.1335C20.5457 13.1 20.5853 13.014 20.5938 12.9296V10.4374H20.8203C20.9455 10.4374 21.0469 10.336 21.0469 10.2109V9.30461C21.0409 9.22708 21.0025 9.15802 20.9398 9.11212L14.3695 5.03402C14.2962 4.98866 14.2038 4.98866 14.1305 5.03402L7.56022 9.11214C7.49751 9.15807 7.45906 9.22715 7.45312 9.30463V10.2109C7.45312 10.336 7.55458 10.4374 7.67969 10.4374H7.90625V12.9296C7.91495 13.0138 7.95444 13.0998 8.03729 13.1334C8.04312 13.1362 8.04889 13.1382 8.05497 13.1405C8.05927 13.1421 8.06335 13.1442 8.06777 13.1456L7.68071 17.2129C7.67019 17.3237 7.74177 17.4258 7.84963 17.4537C7.94159 17.4774 8.0367 17.4911 8.13284 17.5001V18.1406H7.22656C7.10145 18.1406 7 18.242 7 18.3671V19.2734C7 19.3985 7.10145 19.5 7.22656 19.5H21.2734C21.3987 19.5 21.5 19.3985 21.5 19.2734V18.3671C21.5 18.242 21.3987 18.1406 21.2734 18.1406ZM9.49219 18.1406V17.0856C9.54131 17.046 9.58891 17.0049 9.63424 16.9595L9.65239 16.9414C9.69797 16.8958 9.72197 16.8331 9.71843 16.7688L9.71209 16.6481L9.85562 16.6766C9.91459 16.689 9.97289 16.6951 10.0337 16.6951C10.3665 16.6951 10.6781 16.5018 10.8277 16.2028C10.8494 16.1593 10.8565 16.11 10.8481 16.0622L10.2213 12.5057C10.8651 12.0625 11.3681 11.4169 11.6281 10.637L11.6324 10.624C11.8581 10.7907 12.136 10.8905 12.4375 10.8905H12.8776C13.0507 11.0291 13.2736 11.0939 13.4947 11.0661C13.6189 11.3632 13.9117 11.5702 14.25 11.5702C14.5883 11.5702 14.8812 11.3632 15.0054 11.0661C15.2275 11.0946 15.4501 11.0294 15.6229 10.8905H16.0625C16.3641 10.8905 16.642 10.7907 16.8677 10.6239L16.8721 10.637C17.1321 11.4169 17.635 12.0626 18.2788 12.5057L17.652 16.0622C17.6433 16.11 17.6506 16.1593 17.6723 16.2028C17.8219 16.5018 18.1336 16.6951 18.4664 16.6951C18.5273 16.6951 18.5854 16.689 18.6421 16.6772L18.788 16.6481L18.7817 16.7688C18.7781 16.8331 18.802 16.8959 18.8476 16.9413L18.8658 16.9595C18.9113 17.0051 18.9589 17.0463 19.0078 17.0856V18.1405L9.49219 18.1406ZM8.3306 17.0572C8.32639 17.0577 8.32208 17.0578 8.31787 17.0578C8.26223 17.0576 8.20613 17.0554 8.15137 17.0493L8.52413 13.133C8.70935 13.1133 8.891 13.0805 9.06806 13.0341L9.26016 16.6898C9.22079 16.7251 9.17919 16.7579 9.13349 16.7897C8.9055 16.9533 8.6284 17.0477 8.3306 17.0572ZM9.80527 12.7559L10.3874 16.0584C10.2895 16.1952 10.1233 16.2701 9.94642 16.2327L9.68748 16.1812L9.5141 12.8872C9.61306 12.8473 9.7105 12.8041 9.80527 12.7559ZM7.90625 9.98432V9.53119H11.0781C11.0781 9.69026 11.107 9.84235 11.1574 9.98432H7.90625ZM16.5156 9.30463H16.9688V9.53119C16.9688 10.0309 16.5623 10.4374 16.0625 10.4374H15.9083C15.9623 10.2006 15.9076 9.95063 15.7607 9.75775C15.7783 9.7346 15.7931 9.70979 15.808 9.68512C16.0311 9.61126 16.2245 9.48472 16.3773 9.3197C16.4229 9.31272 16.4682 9.30463 16.5156 9.30463ZM16.2891 8.39838C16.2891 8.69515 16.1444 8.96161 15.9163 9.1285C15.9008 9.03343 15.8704 8.93955 15.8196 8.85162C15.6825 8.61411 15.4425 8.47206 15.1862 8.4482C15.3539 8.27427 15.5847 8.17182 15.8359 8.17182H16.2891V8.39838ZM14.6153 8.74609C14.6195 8.82241 14.662 8.89145 14.7281 8.92962C14.7945 8.968 14.8752 8.97011 14.9434 8.93572C15.1186 8.84788 15.3306 8.91061 15.4271 9.07809C15.524 9.2459 15.472 9.4613 15.3087 9.56828C15.2447 9.6101 15.2063 9.68133 15.2063 9.75778C15.2063 9.83422 15.2447 9.90547 15.3087 9.94727C15.472 10.0543 15.524 10.2697 15.4271 10.4376C15.4129 10.4622 15.3955 10.4837 15.3768 10.5037L15.3764 10.504C15.2678 10.6193 15.0923 10.6546 14.9434 10.5798C14.8753 10.5454 14.7945 10.5475 14.7281 10.5859C14.662 10.6241 14.6195 10.6931 14.6153 10.7695C14.6043 10.9644 14.444 11.1172 14.25 11.1172C14.0562 11.1172 13.8958 10.9644 13.8848 10.7694C13.8805 10.693 13.8381 10.6241 13.7719 10.5858C13.7369 10.5657 13.6978 10.5555 13.6586 10.5555C13.6237 10.5555 13.5887 10.5636 13.5565 10.5798C13.4079 10.6548 13.2321 10.6196 13.1233 10.5038C13.1045 10.4838 13.0871 10.4622 13.0729 10.4375C12.976 10.2695 13.028 10.0543 13.1913 9.94727C13.2553 9.90545 13.2938 9.83422 13.2938 9.75778C13.2938 9.68133 13.2553 9.61008 13.1913 9.56828C13.0279 9.4613 12.9759 9.24602 13.0729 9.07809C13.1697 8.91027 13.3822 8.84777 13.5565 8.93572C13.6247 8.97013 13.7057 8.9678 13.7719 8.92974C13.8381 8.89147 13.8806 8.82255 13.8849 8.7462C13.8958 8.55117 14.0562 8.39838 14.25 8.39838C14.444 8.39838 14.6042 8.55115 14.6153 8.74609ZM12.6803 8.8515C12.6296 8.9395 12.5992 9.03341 12.5837 9.12845C12.3556 8.96157 12.2109 8.69515 12.2109 8.39838V8.17182H12.6641C12.9155 8.17182 13.1465 8.2744 13.3142 8.44859C13.0581 8.47267 12.8176 8.61391 12.6803 8.8515ZM12.1227 9.3197C12.2755 9.48466 12.4689 9.61115 12.6918 9.68503C12.7067 9.70975 12.7215 9.73458 12.7392 9.75775C12.5923 9.95063 12.5376 10.2006 12.5916 10.4374H12.4375C11.9378 10.4374 11.5312 10.0309 11.5312 9.53119V9.30463H11.9844C12.0319 9.30463 12.0771 9.31274 12.1227 9.3197ZM19.9761 13.133L20.3486 17.0493C20.2979 17.0549 20.2468 17.0576 20.1951 17.0576C20.1867 17.0575 20.1776 17.0581 20.1471 17.0554C19.8716 17.0477 19.5944 16.9533 19.3638 16.7879C19.32 16.7573 19.2789 16.7249 19.2397 16.6898L19.4321 13.0341C19.6092 13.0805 19.7909 13.1134 19.9761 13.133ZM18.8126 16.1812L18.5512 16.2332C18.3879 16.2669 18.2104 16.195 18.1126 16.0582L18.6946 12.7558C18.7894 12.804 18.8869 12.8472 18.9859 12.8872L18.8126 16.1812ZM19.461 17.3554C19.6085 17.419 19.7604 17.4636 19.9141 17.4859V18.1406H19.461V17.3554ZM20.1406 12.4796C19.8155 12.2032 19.3584 11.7147 19.23 11.0726C19.2056 10.9501 19.0877 10.8705 18.9634 10.895C18.8408 10.9195 18.7611 11.0389 18.7857 11.1616C18.9107 11.7869 19.2805 12.2785 19.6176 12.614C18.5474 12.3596 17.6612 11.5715 17.3018 10.4936L17.283 10.4374H20.1406V12.4796ZM20.5938 9.98429H17.3426C17.393 9.84233 17.4219 9.69024 17.4219 9.53117H20.5938V9.98429ZM14.25 5.49312L20.0257 9.07807H17.4219C17.4219 8.95296 17.3205 8.8515 17.1953 8.8515H16.6647C16.7149 8.70907 16.7422 8.55648 16.7422 8.39838V7.94526C16.7422 7.82015 16.6408 7.71869 16.5156 7.71869H15.8359C15.4373 7.71869 15.0718 7.88855 14.818 8.17719C14.6703 8.03398 14.4702 7.94526 14.25 7.94526C14.0298 7.94526 13.8297 8.034 13.682 8.17723C13.4282 7.88857 13.0627 7.71869 12.6641 7.71869H11.9844C11.8593 7.71869 11.7578 7.82015 11.7578 7.94526V8.39838C11.7578 8.55648 11.7851 8.70907 11.8353 8.8515H11.3047C11.1796 8.8515 11.0781 8.95296 11.0781 9.07807H8.47431L14.25 5.49312ZM11.2169 10.4374L11.1982 10.4936C10.8389 11.5715 9.95272 12.3596 8.88239 12.614C9.2195 12.2786 9.58929 11.7869 9.71431 11.1616C9.73887 11.0389 9.65932 10.9195 9.53664 10.895C9.41296 10.8701 9.29449 10.9499 9.27002 11.0726C9.14222 11.7117 8.68479 12.201 8.35935 12.4785V10.4374L11.2169 10.4374ZM8.58594 17.4856C8.74249 17.4623 8.89379 17.4173 9.03906 17.3551V18.1406H8.58594V17.4856ZM21.0469 19.0468H7.45312V18.5937H21.0469V19.0468Z" fill="white"/>
<path d="M15.1562 13.1562C14.8569 13.1562 14.5286 13.2574 14.25 13.4316C13.9717 13.2574 13.6432 13.1562 13.3438 13.1562C12.5941 13.1562 11.9844 13.766 11.9844 14.5156C11.9844 16.2632 14.1104 16.7557 14.2009 16.7758C14.217 16.7795 14.2335 16.7812 14.25 16.7812C14.2665 16.7812 14.283 16.7795 14.2991 16.7758C14.3896 16.7557 16.5156 16.2632 16.5156 14.5156C16.5156 13.766 15.9059 13.1562 15.1562 13.1562ZM14.25 16.3209C13.9544 16.2413 12.4375 15.7705 12.4375 14.5156C12.4375 14.0159 12.844 13.6094 13.3438 13.6094C13.5981 13.6094 13.8855 13.713 14.1123 13.8867C14.1935 13.9489 14.3063 13.9489 14.3877 13.8867C14.6146 13.713 14.902 13.6094 15.1562 13.6094C15.6561 13.6094 16.0625 14.0159 16.0625 14.5156C16.0625 15.7705 14.5456 16.2413 14.25 16.3209Z" fill="white"/>
<path d="M13.5703 9.75781C13.5703 10.1326 13.8752 10.4375 14.25 10.4375C14.6248 10.4375 14.9297 10.1326 14.9297 9.75781C14.9297 9.38301 14.6248 9.07812 14.25 9.07812C13.8752 9.07812 13.5703 9.38301 13.5703 9.75781ZM14.4766 9.75781C14.4766 9.88272 14.3749 9.98438 14.25 9.98438C14.1251 9.98438 14.0234 9.88272 14.0234 9.75781C14.0234 9.63291 14.1251 9.53125 14.25 9.53125C14.3749 9.53125 14.4766 9.63291 14.4766 9.75781Z" fill="white"/>
</g>
<defs>
<clipPath id="clip0_45_225">
<rect width="14.5" height="14.5" fill="white" transform="translate(7 5)"/>
</clipPath>
</defs>
</svg>
