<svg xmlns="http://www.w3.org/2000/svg" width="24" height="25" viewBox="0 0 24 25" fill="none">
                  <g clip-path="url(#clip0_5212_1092)">
                    <path d="M16.1278 8.6929L16.098 8.66307C15.1229 7.68768 13.8318 7.09221 12.4569 6.98376C11.082 6.87532 9.71348 7.26102 8.59755 8.07149C7.48162 8.88196 6.69149 10.064 6.36928 11.405C6.04707 12.7461 6.21393 14.1581 6.83984 15.387L7.09475 15.8887L6.62018 18.1938L6.6134 18.2236L8.90354 17.6812L9.42556 17.9456C10.5117 18.4852 11.7397 18.6708 12.9368 18.4762C14.134 18.2816 15.24 17.7167 16.0994 16.8609C17.1803 15.7798 17.7901 14.3152 17.7956 12.7864C17.8012 11.2577 17.2022 9.78864 16.1292 8.69968L16.1278 8.6929ZM15.8946 15.1633C15.6139 15.6053 15.1706 16.145 14.6133 16.2792C13.637 16.5165 12.1387 16.2874 10.2744 14.5504L10.2513 14.5287C8.61202 13.0101 8.18626 11.7451 8.28931 10.7417C8.34626 10.1708 8.82083 9.65696 9.22082 9.31933C9.28417 9.26564 9.35916 9.22745 9.43985 9.20781C9.52053 9.18816 9.60469 9.18759 9.68563 9.20615C9.76657 9.22471 9.84207 9.26188 9.90614 9.31471C9.97021 9.36755 10.0211 9.43459 10.0547 9.51052L10.6581 10.8746C10.6976 10.9624 10.7123 11.0594 10.7006 11.155C10.6889 11.2506 10.6512 11.3412 10.5916 11.4169L10.2866 11.8129C10.2227 11.894 10.1841 11.9922 10.1757 12.0952C10.1672 12.1982 10.1893 12.3013 10.2391 12.3918C10.41 12.6901 10.8194 13.1308 11.2737 13.5403C11.7835 13.9999 12.3489 14.4216 12.7069 14.5667C12.8029 14.6051 12.9081 14.6142 13.0093 14.5927C13.1104 14.5712 13.2029 14.5202 13.275 14.446L13.6289 14.0894C13.6972 14.0221 13.7821 13.9741 13.875 13.9502C13.9679 13.9264 14.0654 13.9277 14.1577 13.9538L15.5909 14.3606C15.6701 14.3848 15.7428 14.4268 15.8033 14.4835C15.8638 14.5401 15.9105 14.6099 15.9398 14.6874C15.9691 14.7649 15.9803 14.8481 15.9725 14.9306C15.9646 15.0131 15.938 15.0927 15.8946 15.1633Z" fill="#8D8D8D"></path>
                    <path d="M20.6782 0.887207H3.32254C2.45948 0.887207 1.63177 1.23006 1.02149 1.84034C0.41121 2.45061 0.0683594 3.27833 0.0683594 4.14139L0.0683594 21.497C0.0683594 22.3601 0.41121 23.1878 1.02149 23.7981C1.63177 24.4084 2.45948 24.7512 3.32254 24.7512H20.6782C21.5413 24.7512 22.369 24.4084 22.9793 23.7981C23.5895 23.1878 23.9324 22.3601 23.9324 21.497V4.14139C23.9324 3.27833 23.5895 2.45061 22.9793 1.84034C22.369 1.23006 21.5413 0.887207 20.6782 0.887207ZM19.3941 12.9955C19.3541 14.2342 19.0036 15.4431 18.3747 16.5111C17.7458 17.5791 16.8587 18.472 15.7949 19.1078C14.731 19.7437 13.5245 20.1021 12.286 20.1502C11.0475 20.1984 9.81684 19.9346 8.70686 19.3832L4.97133 20.2686C4.91471 20.2818 4.85543 20.2776 4.80125 20.2565C4.74706 20.2355 4.70048 20.1986 4.66761 20.1506C4.64542 20.1188 4.63 20.0828 4.6223 20.0448C4.61461 20.0067 4.6148 19.9676 4.62286 19.9296L5.40793 16.1181C4.89586 15.1126 4.62059 14.0033 4.60318 12.875C4.58578 11.7468 4.82671 10.6295 5.30753 9.60866C5.78835 8.58783 6.49632 7.69052 7.37727 6.98539C8.25822 6.28026 9.28879 5.78599 10.3901 5.54042C11.4915 5.29484 12.6344 5.30446 13.7315 5.56855C14.8285 5.83263 15.8507 6.34417 16.7196 7.06403C17.5886 7.78389 18.2813 8.693 18.7449 9.72178C19.2085 10.7506 19.4305 11.8717 19.3941 12.9996V12.9955Z" fill="#8D8D8D"></path>
                  </g>
                  <defs>
                    <clipPath id="clip0_5212_1092">
                      <rect width="23.864" height="23.864" fill="white" transform="translate(0.0683594 0.887207)"></rect>
                    </clipPath>
                  </defs>
                </svg>