<svg width="25" height="25" viewBox="0 0 25 25" fill="none" xmlns="http://www.w3.org/2000/svg">
<path d="M9 6.5L12.5 0.5L16.5 6.5L23 8.5L18.5 14L19.5 19.5L18.5 21L17 20L12 18L6.5 21L5.5 20L6.5 13.5L2 9L2.5 8L9 6.5Z" fill="#C8E7FF"/>
<path d="M23.0618 9.82177C23.5143 9.37572 23.6744 8.72112 23.4791 8.11388C23.2838 7.50664 22.774 7.07177 22.1484 6.98032L16.6777 6.17638C16.5702 6.16059 16.4771 6.09282 16.4296 5.99414L13.9837 0.98493C13.7037 0.411904 13.1373 0.0566406 12.5051 0.0566406C11.873 0.0566406 11.3066 0.412562 11.0266 0.98493L8.58066 5.99414C8.53248 6.09282 8.44003 6.16059 8.33196 6.17638L2.86191 6.97967C2.23625 7.07111 1.72649 7.50598 1.53118 8.11322C1.33586 8.72111 1.49537 9.37506 1.94849 9.82111L5.90683 13.7198C5.9843 13.7961 6.02011 13.9066 6.00123 14.0145L5.06698 19.5198C4.96021 20.1494 5.21151 20.7737 5.72258 21.1494C6.2343 21.5251 6.89967 21.5737 7.45891 21.2764L12.3515 18.677C12.4478 18.6257 12.5624 18.6257 12.6581 18.677L17.5507 21.2764C17.7942 21.4053 18.0572 21.4698 18.3196 21.4698C18.6601 21.4698 18.998 21.3619 19.287 21.1494C19.7988 20.7737 20.0494 20.1494 19.9426 19.5198L19.0077 14.0145C18.9895 13.9066 19.0253 13.7961 19.1028 13.7198L23.0618 9.82177ZM17.7083 14.2409L18.6425 19.7461C18.6738 19.9303 18.5611 20.0356 18.5116 20.0718C18.4615 20.108 18.3281 20.1843 18.164 20.0968L13.2714 17.4974C13.0312 17.3698 12.7682 17.306 12.5045 17.306C12.2408 17.306 11.9771 17.3698 11.7376 17.4974L6.84498 20.0968C6.68157 20.1836 6.54745 20.108 6.49797 20.0718C6.44849 20.0349 6.33521 19.9303 6.36646 19.7461L7.30136 14.2409C7.39316 13.7007 7.21607 13.1494 6.8274 12.7665L2.86907 8.86717C2.73625 8.7369 2.76685 8.58493 2.78573 8.52572C2.80461 8.46651 2.86842 8.32572 3.05201 8.2994L8.52206 7.49611C9.05917 7.41717 9.52336 7.07638 9.7636 6.58493L12.2096 1.57572C12.2916 1.40796 12.4433 1.39019 12.5051 1.39019C12.567 1.39019 12.7187 1.40796 12.8007 1.57572L15.2467 6.58493C15.4869 7.07704 15.9511 7.41717 16.4882 7.49611L21.9583 8.2994C22.1412 8.32638 22.205 8.46717 22.2245 8.52572C22.2434 8.58493 22.2734 8.7369 22.1412 8.86717L18.1829 12.7665C17.7942 13.1487 17.6165 13.7001 17.7083 14.2409Z" fill="url(#paint0_linear_5131_696)"/>
<path d="M20.2121 0.98489C19.9172 0.768443 19.505 0.834232 19.2909 1.13226L18.591 2.10594C18.3768 2.40397 18.4419 2.82042 18.7368 3.03686C18.854 3.12305 18.9894 3.1645 19.1242 3.1645C19.328 3.1645 19.5291 3.0691 19.658 2.8895L20.3579 1.91581C20.5721 1.61778 20.5063 1.20134 20.2121 0.98489Z" fill="url(#paint1_linear_5131_696)"/>
<mask id="mask0_5131_696" style="mask-type:luminance" maskUnits="userSpaceOnUse" x="0" y="0" width="25" height="25">
<path d="M25 0H0V25H25V0Z" fill="white"/>
</mask>
<g mask="url(#mask0_5131_696)">
<path d="M6.41632 2.10185L5.71645 1.12816C5.50226 0.830796 5.09015 0.764349 4.79523 0.980796C4.50095 1.19724 4.4352 1.61369 4.64939 1.91172L5.34926 2.8854C5.47817 3.06501 5.67934 3.1604 5.88377 3.1604C6.01788 3.1604 6.15395 3.11895 6.27049 3.03277C6.56476 2.81632 6.63051 2.39988 6.41632 2.10185Z" fill="url(#paint2_linear_5131_696)"/>
</g>
<mask id="mask1_5131_696" style="mask-type:luminance" maskUnits="userSpaceOnUse" x="0" y="0" width="25" height="25">
<path d="M25 0H0V25H25V0Z" fill="white"/>
</mask>
<g mask="url(#mask1_5131_696)">
<path d="M2.41922 15.0078C2.30659 14.6578 1.93485 14.4664 1.58784 14.5802L0.455682 14.9519C0.109328 15.0657 -0.0801249 15.4414 0.0325053 15.7914C0.123 16.073 0.381464 16.2519 0.659458 16.2519C0.727167 16.2519 0.795526 16.2414 0.863234 16.219L1.99605 15.8473C2.3424 15.7342 2.53185 15.3578 2.41922 15.0078Z" fill="url(#paint3_linear_5131_696)"/>
</g>
<mask id="mask2_5131_696" style="mask-type:luminance" maskUnits="userSpaceOnUse" x="0" y="0" width="25" height="25">
<path d="M25 0H0V25H25V0Z" fill="white"/>
</mask>
<g mask="url(#mask2_5131_696)">
<path d="M12.5033 22.4072C12.1393 22.4072 11.8438 22.7059 11.8438 23.0737V24.277C11.8438 24.6447 12.1387 24.9434 12.5033 24.9434C12.8672 24.9434 13.1628 24.6447 13.1628 24.277V23.0737C13.1628 22.7053 12.8678 22.4072 12.5033 22.4072Z" fill="url(#paint4_linear_5131_696)"/>
</g>
<mask id="mask3_5131_696" style="mask-type:luminance" maskUnits="userSpaceOnUse" x="0" y="0" width="25" height="25">
<path d="M25 0H0V25H25V0Z" fill="white"/>
</mask>
<g mask="url(#mask3_5131_696)">
<path d="M24.5468 14.9534L23.4147 14.5817C23.0683 14.4679 22.6959 14.6593 22.5833 15.0093C22.4707 15.3593 22.6601 15.7356 23.0065 15.8488L24.1393 16.2205C24.207 16.2429 24.2753 16.2534 24.3431 16.2534C24.621 16.2534 24.8795 16.0744 24.97 15.7929C25.0826 15.4429 24.8932 15.0672 24.5468 14.9534Z" fill="url(#paint5_linear_5131_696)"/>
</g>
<defs>
<linearGradient id="paint0_linear_5131_696" x1="22.6765" y1="0.484906" x2="2.58532" y2="22.1143" gradientUnits="userSpaceOnUse">
<stop stop-color="#05BAFF"/>
<stop offset="1" stop-color="#4E62FF"/>
</linearGradient>
<linearGradient id="paint1_linear_5131_696" x1="20.4031" y1="0.903564" x2="18.2417" y2="2.87563" gradientUnits="userSpaceOnUse">
<stop stop-color="#05BAFF"/>
<stop offset="1" stop-color="#4E62FF"/>
</linearGradient>
<linearGradient id="paint2_linear_5131_696" x1="6.46152" y1="0.899654" x2="4.30026" y2="2.87153" gradientUnits="userSpaceOnUse">
<stop stop-color="#05BAFF"/>
<stop offset="1" stop-color="#4E62FF"/>
</linearGradient>
<linearGradient id="paint3_linear_5131_696" x1="2.35366" y1="14.5815" x2="0.87317" y2="16.8015" gradientUnits="userSpaceOnUse">
<stop stop-color="#05BAFF"/>
<stop offset="1" stop-color="#4E62FF"/>
</linearGradient>
<linearGradient id="paint4_linear_5131_696" x1="13.11" y1="22.458" x2="11.1104" y2="23.5422" gradientUnits="userSpaceOnUse">
<stop stop-color="#05BAFF"/>
<stop offset="1" stop-color="#4E62FF"/>
</linearGradient>
<linearGradient id="paint5_linear_5131_696" x1="24.9044" y1="14.5829" x2="23.424" y2="16.803" gradientUnits="userSpaceOnUse">
<stop stop-color="#05BAFF"/>
<stop offset="1" stop-color="#4E62FF"/>
</linearGradient>
</defs>
</svg>
