<svg xmlns="http://www.w3.org/2000/svg" width="25" height="25" viewBox="0 0 25 25" fill="none">
                  <g clip-path="url(#clip0_5212_1072)">
                    <path d="M21.2212 0.864746H3.86551C3.00245 0.864746 2.17473 1.2076 1.56446 1.81787C0.954179 2.42815 0.611328 3.25587 0.611328 4.11893L0.611328 21.4746C0.611328 22.3376 0.954179 23.1654 1.56446 23.7756C2.17473 24.3859 3.00245 24.7288 3.86551 24.7288H21.2212C22.0842 24.7288 22.9119 24.3859 23.5222 23.7756C24.1325 23.1654 24.4753 22.3376 24.4753 21.4746V4.11893C24.4753 3.25587 24.1325 2.42815 23.5222 1.81787C22.9119 1.2076 22.0842 0.864746 21.2212 0.864746ZM13.6945 16.1187C12.7684 16.1187 11.8993 15.6184 11.601 15.0503C11.601 15.0503 11.1034 17.0245 10.999 17.4055C10.6274 18.7506 9.53728 20.0983 9.45186 20.2082C9.43853 20.226 9.42027 20.2395 9.39935 20.247C9.37842 20.2546 9.35575 20.2558 9.33412 20.2506C9.31249 20.2454 9.29285 20.234 9.27763 20.2178C9.26241 20.2016 9.25228 20.1813 9.24848 20.1593C9.22543 19.9885 8.94746 18.2895 9.27424 16.9052L10.3739 12.2354C10.1884 11.8078 10.0959 11.3456 10.1027 10.8795C10.1027 9.61037 10.839 8.66259 11.7556 8.66259C12.5338 8.66259 12.9108 9.24698 12.9108 9.94934C12.9108 10.7317 12.4118 11.9032 12.1542 12.9893C11.9386 13.8978 12.6098 14.6394 13.5101 14.6394C15.1372 14.6394 16.2219 12.554 16.2219 10.0836C16.2219 8.207 14.9582 6.80092 12.6572 6.80092C10.0593 6.80092 8.439 8.73852 8.439 10.8985C8.439 11.6456 8.66001 12.1717 9.00441 12.5785C9.16305 12.7656 9.1861 12.8415 9.1278 13.0557C9.08712 13.2144 8.99221 13.5981 8.95289 13.7432C8.94589 13.7896 8.92783 13.8337 8.90022 13.8717C8.87261 13.9097 8.83627 13.9405 8.79426 13.9615C8.75225 13.9825 8.7058 13.9931 8.65884 13.9924C8.61188 13.9917 8.56577 13.9797 8.52442 13.9574C7.32715 13.4747 6.76987 12.1635 6.76987 10.691C6.76987 8.25717 8.82272 5.33925 12.8932 5.33925C16.1636 5.33925 18.3168 7.70531 18.3168 10.2463C18.3168 13.6103 16.4484 16.1187 13.6945 16.1187Z" fill="#8D8D8D"></path>
                  </g>
                  <defs>
                    <clipPath id="clip0_5212_1072">
                      <rect width="23.864" height="23.864" fill="white" transform="translate(0.611328 0.864746)"></rect>
                    </clipPath>
                  </defs>
                </svg>